#N canvas 945 482 821 485 10;
#X declare -stdpath Fraise;
#X obj 10 36 pied/pied 0 41424;
#X obj 9 11 declare -stdpath Fraise;
#N canvas 914 165 605 585 scenario 0;
#X obj 116 91 state Debut;
#X obj 116 164 state Rewind;
#X obj 49 217 state PauseRewind;
#X obj 116 57 bng 15 250 50 0 empty empty empty 17 7 0 10 -262144 -1
-1;
#N canvas 88 262 450 300 Debut 0;
#X obj 254 12 inlet;
#X obj 152 117 sel 1;
#X obj 152 138 spigot;
#X obj 152 159 outlet rewind;
#X obj 152 96 r REWIND_SWITCH;
#X obj 272 98 sel 1;
#X obj 272 119 s STOP_MOTORS;
#X msg 251 144 0;
#X obj 251 164 s ENABLE_BIKES;
#X connect 0 0 5 0;
#X connect 0 0 2 1;
#X connect 1 0 2 0;
#X connect 2 0 3 0;
#X connect 4 0 1 0;
#X connect 5 0 6 0;
#X connect 5 0 7 0;
#X connect 7 0 8 0;
#X restore 116 119 pd Debut;
#X obj 330 102 tgl 15 0 START_SWITCH START_SWITCH START_SWITCH 17 7
0 10 -4034 -1 -1 0 1;
#X obj 330 122 tgl 15 0 STOP_SWITCH STOP_SWITCH STOP_SWITCH 17 7 0
10 -258113 -1 -1 0 1;
#X obj 330 141 tgl 15 0 REWIND_SWITCH REWIND_SWITCH REWIND_SWITCH 17
7 0 10 -260097 -1 -1 0 1;
#X obj 116 14 loadbang;
#X obj 116 35 del 1000;
#N canvas 1 81 591 365 Rewind 0;
#X obj 112 25 inlet;
#X obj 142 119 sel 1;
#X obj 25 255 spigot;
#X obj 238 76 metro 100;
#X obj 283 95 r cheval1-lowswitch;
#X obj 312 116 r cheval2-lowswitch;
#X obj 283 222 &&;
#X obj 312 222 &&;
#X obj 342 222 &&;
#X obj 371 222 &&;
#X obj 400 222 &&;
#X obj 342 139 r cheval3-lowswitch;
#X obj 371 160 r cheval4-lowswitch;
#X obj 400 181 r cheval5-lowswitch;
#X obj 415 199 r cheval6-lowswitch;
#X obj 238 247 f, f 8;
#X obj 265 194 t b b b b b, f 20;
#X obj 238 165 t b b;
#X obj 238 268 sel 1;
#X obj 238 289 outlet PausePreCourse;
#X obj 142 140 s RUN_REWIND;
#X obj 25 210 r STOP_SWITCH;
#X obj 25 231 sel 1;
#X obj 25 287 outlet PauseRewind;
#X msg 100 152 0;
#X obj 100 172 s ENABLE_BIKES;
#X connect 0 0 1 0;
#X connect 0 0 2 1;
#X connect 0 0 3 0;
#X connect 1 0 20 0;
#X connect 1 0 24 0;
#X connect 2 0 23 0;
#X connect 3 0 17 0;
#X connect 4 0 6 0;
#X connect 5 0 7 0;
#X connect 6 0 15 1;
#X connect 7 0 6 1;
#X connect 8 0 7 1;
#X connect 9 0 8 1;
#X connect 10 0 9 1;
#X connect 11 0 8 0;
#X connect 12 0 9 0;
#X connect 13 0 10 0;
#X connect 14 0 10 1;
#X connect 15 0 18 0;
#X connect 16 0 6 0;
#X connect 16 1 7 0;
#X connect 16 2 8 0;
#X connect 16 3 9 0;
#X connect 16 4 10 0;
#X connect 17 0 15 0;
#X connect 17 1 16 0;
#X connect 18 0 19 0;
#X connect 21 0 22 0;
#X connect 22 0 2 0;
#X connect 24 0 25 0;
#X restore 116 192 pd Rewind;
#X obj 167 215 state PausePreCourse;
#N canvas 1 81 450 300 PauseRewind 0;
#X obj 142 23 inlet;
#X obj 263 133 sel 1;
#X obj 24 187 spigot;
#X obj 24 107 sel 1;
#X obj 263 154 s STOP_MOTORS;
#X obj 24 86 r START_SWITCH;
#X obj 38 150 sel 1;
#X obj 38 129 r REWIND_SWITCH;
#X obj 24 211 outlet Rewind;
#X connect 0 0 2 1;
#X connect 0 0 1 0;
#X connect 1 0 4 0;
#X connect 2 0 8 0;
#X connect 3 0 2 0;
#X connect 5 0 3 0;
#X connect 6 0 2 0;
#X connect 7 0 6 0;
#X restore 49 245 pd PauseRewind;
#N canvas 1 135 382 280 PausePreCourse 0;
#X obj 112 25 inlet;
#X obj 43 163 spigot;
#X obj 43 139 sel 1;
#X obj 43 118 r START_SWITCH;
#X obj 43 195 outlet Course;
#X connect 0 0 1 1;
#X connect 1 0 4 0;
#X connect 2 0 1 0;
#X connect 3 0 2 0;
#X restore 167 244 pd PausePreCourse;
#X obj 167 269 state Course;
#N canvas 1 81 747 378 Course 0;
#X obj 112 25 inlet;
#X obj 189 138 sel 1;
#X obj 25 255 spigot;
#X obj 417 77 metro 100;
#X obj 417 248 f, f 8;
#X obj 444 195 t b b b b b, f 20;
#X obj 417 166 t b b;
#X obj 25 210 r STOP_SWITCH;
#X obj 25 231 sel 1;
#X obj 462 96 r cheval1-highswitch;
#X obj 491 117 r cheval2-highswitch;
#X obj 521 140 r cheval3-highswitch;
#X obj 550 161 r cheval4-highswitch;
#X obj 579 182 r cheval5-highswitch;
#X obj 594 200 r cheval6-highswitch;
#X obj 579 223 +;
#X obj 550 223 +;
#X obj 521 223 +;
#X obj 491 223 +;
#X obj 462 223 +;
#X obj 479 269 r MIN_ARRIVED;
#X obj 417 269 >= 6;
#X obj 417 318 outlet PausePostCourse;
#X msg 189 159 1;
#X obj 189 182 s ENABLE_BIKES;
#X obj 417 290 sel 1;
#X floatatom 368 283 5 0 0 0 - - -;
#X obj 25 287 outlet PauseCourse;
#X connect 0 0 1 0;
#X connect 0 0 2 1;
#X connect 0 0 3 0;
#X connect 1 0 23 0;
#X connect 2 0 27 0;
#X connect 3 0 6 0;
#X connect 4 0 21 0;
#X connect 4 0 26 0;
#X connect 5 0 19 0;
#X connect 5 1 18 0;
#X connect 5 2 17 0;
#X connect 5 3 16 0;
#X connect 5 4 15 0;
#X connect 6 0 4 0;
#X connect 6 1 5 0;
#X connect 7 0 8 0;
#X connect 8 0 2 0;
#X connect 9 0 19 0;
#X connect 10 0 18 0;
#X connect 11 0 17 0;
#X connect 12 0 16 0;
#X connect 13 0 15 0;
#X connect 14 0 15 1;
#X connect 15 0 16 1;
#X connect 16 0 17 1;
#X connect 17 0 18 1;
#X connect 18 0 19 1;
#X connect 19 0 4 1;
#X connect 20 0 21 1;
#X connect 21 0 25 0;
#X connect 23 0 24 0;
#X connect 25 0 22 0;
#X restore 167 297 pd Course;
#X f 16;
#X obj 204 198 bng 15 250 50 0 empty empty empty 17 7 0 10 -262144
-1 -1;
#X obj 127 324 state PauseCourse;
#N canvas 1 81 450 300 PauseCourse 0;
#X obj 142 23 inlet;
#X obj 250 129 sel 1;
#X obj 24 187 spigot;
#X obj 24 158 sel 1;
#X obj 294 150 s STOP_MOTORS;
#X obj 24 137 r START_SWITCH;
#X obj 139 148 sel 1;
#X obj 139 127 r REWIND_SWITCH;
#X obj 139 177 spigot;
#X obj 24 212 outlet Course;
#X msg 250 152 0;
#X obj 250 172 s ENABLE_BIKES;
#X obj 139 201 outlet PreParade;
#X connect 0 0 2 1;
#X connect 0 0 1 0;
#X connect 0 0 8 1;
#X connect 1 0 10 0;
#X connect 2 0 9 0;
#X connect 3 0 2 0;
#X connect 5 0 3 0;
#X connect 6 0 8 0;
#X connect 7 0 6 0;
#X connect 8 0 12 0;
#X connect 10 0 11 0;
#X restore 127 352 pd PauseCourse;
#N canvas 179 487 382 280 PausePostCourse 0;
#X obj 112 25 inlet;
#X obj 43 172 spigot;
#X obj 43 139 sel 1;
#X obj 43 118 r START_SWITCH;
#X obj 43 195 outlet PreParade;
#X obj 139 138 sel 1;
#X obj 139 117 r REWIND_SWITCH;
#X obj 260 121 sel 1;
#X obj 260 165 s ENABLE_BIKES;
#X msg 260 142 0;
#X connect 0 0 1 1;
#X connect 0 0 7 0;
#X connect 1 0 4 0;
#X connect 2 0 1 0;
#X connect 3 0 2 0;
#X connect 5 0 1 0;
#X connect 6 0 5 0;
#X connect 7 0 9 0;
#X connect 9 0 8 0;
#X restore 260 349 pd PausePostCourse;
#X obj 260 320 state PausePostCourse;
#X obj 233 387 state Parade;
#N canvas 1 81 747 378 Parade 0;
#X obj 112 25 inlet;
#X obj 403 205 sel 1;
#X obj 25 255 spigot;
#X obj 25 210 r STOP_SWITCH;
#X obj 25 231 sel 1;
#X obj 403 249 s ENABLE_BIKES;
#X msg 403 226 0;
#X obj 372 271 s RUN_PARADE;
#X obj 163 262 spigot;
#X obj 266 243 sel 1;
#X obj 266 222 r START_SWITCH;
#X obj 163 240 sel 1;
#X obj 163 219 r REWIND_SWITCH;
#X obj 163 287 outlet Rewind;
#X obj 25 287 outlet PauseParade;
#X connect 0 0 1 0;
#X connect 0 0 2 1;
#X connect 0 0 8 1;
#X connect 1 0 6 0;
#X connect 1 0 7 0;
#X connect 2 0 14 0;
#X connect 3 0 4 0;
#X connect 4 0 2 0;
#X connect 6 0 5 0;
#X connect 8 0 13 0;
#X connect 10 0 9 0;
#X connect 11 0 8 0;
#X connect 12 0 11 0;
#X restore 233 417 pd Parade;
#X f 16;
#X obj 190 450 state PauseParade;
#N canvas 172 506 450 300 PauseParade 0;
#X obj 142 23 inlet;
#X obj 250 129 sel 1;
#X obj 24 187 spigot;
#X obj 24 158 sel 1;
#X obj 250 154 s STOP_MOTORS;
#X obj 24 137 r START_SWITCH;
#X obj 139 148 sel 1;
#X obj 139 127 r REWIND_SWITCH;
#X obj 24 210 outlet Parade;
#X connect 0 0 2 1;
#X connect 0 0 1 0;
#X connect 1 0 4 0;
#X connect 2 0 8 0;
#X connect 3 0 2 0;
#X connect 5 0 3 0;
#X connect 6 0 2 0;
#X connect 7 0 6 0;
#X restore 190 478 pd PauseParade;
#X obj 410 213 t b;
#X connect 0 0 4 0;
#X connect 1 0 10 0;
#X connect 2 0 12 0;
#X connect 3 0 0 0;
#X connect 4 0 1 0;
#X connect 8 0 9 0;
#X connect 9 0 3 0;
#X connect 10 0 2 0;
#X connect 10 1 11 0;
#X connect 11 0 13 0;
#X connect 12 0 1 0;
#X connect 13 0 14 0;
#X connect 14 0 15 0;
#X connect 15 0 17 0;
#X connect 15 1 20 0;
#X connect 16 0 11 0;
#X connect 17 0 18 0;
#X connect 18 0 14 0;
#X connect 18 1 21 0;
#X connect 19 0 21 0;
#X connect 20 0 19 0;
#X connect 21 0 22 0;
#X connect 22 0 23 0;
#X connect 22 1 25 0;
#X connect 23 0 24 0;
#X connect 24 0 21 0;
#X connect 25 0 1 0;
#X restore 11 286 pd scenario;
#X obj 228 101 cheval 2 2;
#X obj 440 64 state_view Debut;
#X obj 440 100 state_view Rewind;
#X obj 626 100 state_view PauseRewind;
#X obj 440 136 state_view PausePreCourse;
#X obj 440 172 state_view Course;
#X obj 626 172 state_view PauseCourse;
#X obj 440 208 state_view PausePostCourse;
#X obj 440 244 state_view Parade;
#X obj 626 244 state_view PauseParade;
#X obj 635 37 tgl 15 0 START_SWITCH START_SWITCH START_SWITCH 17 7
0 10 -4034 -1 -1 0 1;
#X obj 635 57 tgl 15 0 STOP_SWITCH STOP_SWITCH STOP_SWITCH 17 7 0 10
-258113 -1 -1 0 1;
#X obj 635 76 tgl 15 0 REWIND_SWITCH REWIND_SWITCH REWIND_SWITCH 17
7 0 10 -260097 -1 -1 0 1;
#X obj 229 175 cheval 3 3;
#X obj 229 248 cheval 4 4;
#X obj 230 321 cheval 5 5;
#X obj 230 394 cheval 6 6;
#N canvas 770 331 450 300 Velos 0;
#X obj 128 226 fruit/send2 master1;
#X msg 128 198 c 50 c \$1 i \$2;
#X msg 128 158 4 \$1;
#X floatatom 135 90 5 0 0 0 - - -;
#X obj 245 60 hsl 128 15 0 1 0 0 empty empty empty -2 -8 0 10 -262144
-1 -1 0 1;
#X obj 243 80 * 1023;
#X msg 235 155 5 1024;
#X msg 255 107 1024;
#X obj 70 32 fruit/receive master1;
#X obj 70 88 tgl 15 0 empty empty empty 17 7 0 10 -262144 -1 -1 0 1
;
#X obj 70 53 route present;
#X connect 1 0 0 0;
#X connect 2 0 1 0;
#X connect 3 0 2 0;
#X connect 4 0 5 0;
#X connect 5 0 3 0;
#X connect 6 0 1 0;
#X connect 7 0 3 0;
#X connect 8 0 10 0;
#X connect 10 0 9 0;
#X restore 10 165 pd Velos;
#N canvas 630 115 426 588 Controls 0;
#X msg 223 474 WRITE;
#X text 221 460 eeprom;
#X obj 22 65 analog/parse;
#X obj 22 86 route 0 1;
#X floatatom 22 107 5 0 0 0 - - -;
#X floatatom 61 109 5 0 0 0 - - -;
#X msg 45 332 \$1 50;
#X obj 45 353 line;
#X obj 45 396 * 1010;
#X obj 22 42 fruit/receive stepled1;
#X obj 94 502 fruit/send stepled1, f 22;
#X msg 45 420 c 10 i \$1;
#X obj 45 185 vsl 15 128 0 1 0 0 empty empty empty 0 -9 0 10 -257985
-1 -1 0 1;
#X msg 111 333 \$1 50;
#X obj 111 354 line;
#X obj 111 397 * 1010;
#X obj 111 186 vsl 15 128 0 1 0 0 empty empty empty 0 -9 0 10 -257985
-1 -1 0 1;
#X msg 179 332 \$1 50;
#X obj 179 353 line;
#X obj 179 396 * 1010;
#X obj 179 185 vsl 15 128 0 1 0 0 empty empty empty 0 -9 0 10 -257985
-1 -1 0 1;
#X msg 245 333 \$1 50;
#X obj 245 354 line;
#X obj 245 397 * 1010;
#X obj 245 186 vsl 15 128 0 1 0 0 empty empty empty 0 -9 0 10 -257985
-1 -1 0 1;
#X msg 111 421 c 11 i \$1;
#X msg 179 420 c 12 i \$1;
#X msg 245 421 c 13 i \$1;
#X obj 45 375 pow 2;
#X obj 111 376 pow 2;
#X obj 179 375 pow 2;
#X obj 245 376 pow 2;
#X connect 0 0 10 1;
#X connect 2 0 3 0;
#X connect 3 0 4 0;
#X connect 3 1 5 0;
#X connect 6 0 7 0;
#X connect 7 0 28 0;
#X connect 8 0 11 0;
#X connect 9 0 2 0;
#X connect 11 0 10 0;
#X connect 12 0 6 0;
#X connect 13 0 14 0;
#X connect 14 0 29 0;
#X connect 15 0 25 0;
#X connect 16 0 13 0;
#X connect 17 0 18 0;
#X connect 18 0 30 0;
#X connect 19 0 26 0;
#X connect 20 0 17 0;
#X connect 21 0 22 0;
#X connect 22 0 31 0;
#X connect 23 0 27 0;
#X connect 24 0 21 0;
#X connect 25 0 10 0;
#X connect 26 0 10 0;
#X connect 27 0 10 0;
#X connect 28 0 8 0;
#X connect 29 0 15 0;
#X connect 30 0 19 0;
#X connect 31 0 23 0;
#X restore 11 247 pd Controls;
#X obj 10 116 fruit/fruit 1 velos 10 fwVelos;
#X obj 228 28 cheval 1 1;
#N canvas 790 123 450 300 chrono 0;
#X obj 117 55 r STATE;
#X obj 117 76 sel PausePreCourse Course;
#X msg 117 97 0;
#X msg 190 120 1;
#X obj 190 97 t b b;
#X msg 217 120 0;
#X obj 190 146 metro 100;
#X obj 190 167 i;
#X obj 222 167 + 1;
#X obj 190 188 / 10;
#X obj 190 209 outlet;
#X connect 0 0 1 0;
#X connect 1 0 2 0;
#X connect 1 1 4 0;
#X connect 2 0 6 0;
#X connect 3 0 6 0;
#X connect 4 0 3 0;
#X connect 4 1 5 0;
#X connect 5 0 7 1;
#X connect 6 0 7 0;
#X connect 7 0 8 0;
#X connect 7 0 9 0;
#X connect 8 0 7 1;
#X connect 9 0 10 0;
#X restore 498 363 pd chrono;
#X obj 498 396 nbx 5 30 -1e+37 1e+37 0 0 empty empty empty 0 -8 0 30
-262144 -1 -1 20.1 256;
#X obj 11 198 fruit/fruit 1 controls 11 fwControls;
#X connect 24 0 25 0;
