#N canvas 788 466 891 480 10;
#X declare -stdpath Fraise -path notebank;
#X obj 10 36 pied/pied 0 41424;
#X obj 228 101 cheval 2 2;
#X obj 480 64 state_view Debut;
#X obj 480 100 state_view Rewind;
#X obj 666 100 state_view PauseRewind;
#X obj 480 136 state_view PausePreCourse;
#X obj 480 172 state_view Course;
#X obj 666 172 state_view PauseCourse;
#X obj 480 208 state_view PausePostCourse;
#X obj 480 244 state_view Parade;
#X obj 666 244 state_view PauseParade;
#X obj 675 37 tgl 15 0 START_SWITCH START_SWITCH START_SWITCH 17 7
0 10 -4034 -1 -1 0 1;
#X obj 675 57 tgl 15 0 STOP_SWITCH STOP_SWITCH STOP_SWITCH 17 7 0 10
-258113 -1 -1 0 1;
#X obj 675 76 tgl 15 0 REWIND_SWITCH REWIND_SWITCH REWIND_SWITCH 17
7 0 10 -260097 -1 -1 0 1;
#X obj 229 175 cheval 3 3;
#X obj 229 248 cheval 4 4;
#X obj 230 321 cheval 5 5;
#X obj 230 394 cheval 6 6;
#N canvas 434 93 513 367 Velos 0;
#X msg 72 291 c 50 c \$1 i \$2;
#X floatatom 203 230 5 0 0 0 - - -;
#X obj 205 190 hsl 128 15 0 1 0 0 empty empty empty -2 -8 0 10 -262144
-1 -1 0 1;
#X obj 203 210 * 1023;
#X obj 292 89 tgl 15 0 empty empty empty 17 7 0 10 -262144 -1 -1 0
1;
#X obj 292 67 route present;
#X obj 70 32 fruit/receive velos;
#X obj 72 319 fruit/send2 velos;
#X obj 72 188 r LAMPE_VELOS;
#X obj 72 209 unpack f f;
#X obj 72 230 - 1;
#X obj 129 231 * 1010;
#X obj 72 251 pack f f, f 10;
#X msg 203 250 0 \$1;
#X obj 70 69 route 10;
#X obj 70 91 unpack f f f f f f, f 33;
#X msg 70 112 1 \$1;
#X msg 109 111 2 \$1;
#X msg 148 112 3 \$1;
#X msg 187 111 4 \$1;
#X msg 226 111 5 \$1;
#X msg 265 111 6 \$1;
#X obj 159 144 s PULSE_VELOS;
#X connect 0 0 7 0;
#X connect 1 0 13 0;
#X connect 2 0 3 0;
#X connect 3 0 1 0;
#X connect 5 0 4 0;
#X connect 6 0 5 0;
#X connect 6 0 14 0;
#X connect 8 0 9 0;
#X connect 9 0 10 0;
#X connect 9 1 11 0;
#X connect 10 0 12 0;
#X connect 11 0 12 1;
#X connect 12 0 0 0;
#X connect 13 0 0 0;
#X connect 14 0 15 0;
#X connect 15 0 16 0;
#X connect 15 1 17 0;
#X connect 15 2 18 0;
#X connect 15 3 19 0;
#X connect 15 4 20 0;
#X connect 15 5 21 0;
#X connect 16 0 22 0;
#X connect 17 0 22 0;
#X connect 18 0 22 0;
#X connect 19 0 22 0;
#X connect 20 0 22 0;
#X connect 21 0 22 0;
#X restore 10 165 pd Velos;
#N canvas 665 165 597 642 Controls 0;
#X obj 22 44 analog/parse, f 30;
#X msg 25 458 \$1 50;
#X obj 25 479 line;
#X obj 25 522 * 1010;
#X obj 22 21 fruit/receive stepled1;
#X obj 90 582 fruit/send stepled1, f 22;
#X msg 25 546 c 10 i \$1;
#X obj 25 311 vsl 15 128 0 1 0 0 empty empty empty 0 -9 0 10 -257985
-1 -1 0 1;
#X msg 91 459 \$1 50;
#X obj 91 480 line;
#X obj 91 523 * 1010;
#X obj 91 312 vsl 15 128 0 1 0 0 empty empty empty 0 -9 0 10 -257985
-1 -1 0 1;
#X msg 159 458 \$1 50;
#X obj 159 479 line;
#X obj 159 522 * 1010;
#X obj 159 311 vsl 15 128 0 1 0 0 empty empty empty 0 -9 0 10 -257985
-1 -1 0 1;
#X msg 225 459 \$1 50;
#X obj 225 480 line;
#X obj 225 523 * 1010;
#X obj 225 312 vsl 15 128 0 1 0 0 empty empty empty 0 -9 0 10 -257985
-1 -1 0 1;
#X msg 91 547 c 11 i \$1;
#X msg 159 546 c 12 i \$1;
#X msg 225 547 c 13 i \$1;
#X obj 25 501 pow 2;
#X obj 91 502 pow 2;
#X obj 159 501 pow 2;
#X obj 225 502 pow 2;
#X obj 22 130 route 0 1 2 3, f 27;
#X obj 199 65 route s;
#X obj 199 86 route 0 1 2, f 24;
#X obj 22 65 unpack f f;
#X obj 22 106 pack f f, f 10;
#X obj 79 86 / 8191;
#X obj 22 212 s HARD_POT;
#X obj 61 194 s AMBIANCE_POT;
#X obj 101 172 s MIC_POT;
#X obj 141 154 s FX_POT;
#X obj 199 153 s START_SWITCH;
#X obj 246 131 s STOP_SWITCH;
#X obj 293 109 s REWIND_SWITCH;
#X obj 25 263 r LIGHT_GLOBALS;
#X obj 25 284 route 1 2 3 4, f 45;
#X obj 338 222 r HARD_POT;
#X obj 338 351 s PEDALE_TO_CHEVAL_GAIN;
#X msg 338 243 1 \$1;
#X obj 338 264 -;
#X obj 338 285 clip 0 1;
#X obj 338 306 pow 2;
#X obj 338 327 * 5;
#X obj 416 254 hsl 128 15 0 1 0 0 empty empty empty -2 -8 0 10 -262144
-1 -1 0 1;
#X floatatom 385 327 5 0 0 0 - - -;
#X connect 0 0 30 0;
#X connect 0 1 28 0;
#X connect 1 0 2 0;
#X connect 2 0 23 0;
#X connect 3 0 6 0;
#X connect 4 0 0 0;
#X connect 6 0 5 0;
#X connect 7 0 1 0;
#X connect 8 0 9 0;
#X connect 9 0 24 0;
#X connect 10 0 20 0;
#X connect 11 0 8 0;
#X connect 12 0 13 0;
#X connect 13 0 25 0;
#X connect 14 0 21 0;
#X connect 15 0 12 0;
#X connect 16 0 17 0;
#X connect 17 0 26 0;
#X connect 18 0 22 0;
#X connect 19 0 16 0;
#X connect 20 0 5 0;
#X connect 21 0 5 0;
#X connect 22 0 5 0;
#X connect 23 0 3 0;
#X connect 24 0 10 0;
#X connect 25 0 14 0;
#X connect 26 0 18 0;
#X connect 27 0 33 0;
#X connect 27 1 34 0;
#X connect 27 2 35 0;
#X connect 27 3 36 0;
#X connect 28 0 29 0;
#X connect 29 0 37 0;
#X connect 29 1 38 0;
#X connect 29 2 39 0;
#X connect 30 0 31 0;
#X connect 30 1 32 0;
#X connect 31 0 27 0;
#X connect 32 0 31 1;
#X connect 40 0 41 0;
#X connect 41 0 7 0;
#X connect 41 1 11 0;
#X connect 41 2 15 0;
#X connect 41 3 19 0;
#X connect 42 0 44 0;
#X connect 44 0 45 0;
#X connect 45 0 46 0;
#X connect 46 0 47 0;
#X connect 47 0 48 0;
#X connect 48 0 43 0;
#X connect 49 0 44 0;
#X restore 11 247 pd Controls;
#X obj 10 116 fruit/fruit 1 velos 10 fwVelos;
#X obj 228 28 cheval 1 1;
#N canvas 873 103 450 300 chrono 0;
#X obj 117 55 r STATE;
#X obj 117 76 sel PausePreCourse Course;
#X msg 117 97 0;
#X msg 190 120 1;
#X obj 190 97 t b b;
#X msg 217 120 0;
#X obj 190 146 metro 100;
#X obj 190 167 i;
#X obj 222 167 + 1;
#X obj 190 188 / 10;
#X obj 190 209 outlet;
#X obj 261 101 bng 15 250 50 0 empty empty empty 17 7 0 10 -262144
-1 -1;
#X connect 0 0 1 0;
#X connect 1 0 2 0;
#X connect 1 1 4 0;
#X connect 2 0 6 0;
#X connect 3 0 6 0;
#X connect 4 0 3 0;
#X connect 4 1 5 0;
#X connect 5 0 7 1;
#X connect 6 0 7 0;
#X connect 7 0 8 0;
#X connect 7 0 9 0;
#X connect 8 0 7 1;
#X connect 9 0 10 0;
#X connect 11 0 4 0;
#X restore 498 363 pd chrono;
#X obj 498 396 nbx 5 30 -1e+37 1e+37 0 0 empty empty empty 0 -8 0 30
-262144 -1 -1 0 256;
#X obj 11 198 fruit/fruit 1 controls 11 fwControls;
#N canvas 240 574 790 451 classement 0;
#X obj 205 28 r STATE;
#X obj 205 49 sel PausePreCourse Parade;
#X obj 412 34 table classement 10;
#X obj 412 91 r nb_gagnants;
#X floatatom 412 112 5 0 0 0 - - -;
#X obj 205 96 s nb_gagnants;
#X msg 205 75 0;
#X msg 289 82 1;
#X msg 317 82 0;
#X obj 256 157 spigot;
#X obj 256 136 r CHEVAL_ARRIVE;
#X obj 271 202 r nb_gagnants;
#X obj 256 225 f;
#X obj 272 251 + 1;
#X obj 281 275 s nb_gagnants;
#X msg 174 121 const 0;
#X obj 174 142 s classement;
#X obj 256 178 t b f, f 21;
#X obj 256 367 pack f f, f 21;
#X obj 256 390 s classement;
#X obj 66 69 nbx 1 20 0 6 0 0 place1 place1 1er -40 10 0 20 -262144
-1 -1 0 256;
#X obj 66 93 nbx 1 20 0 6 0 0 place2 place2 2e -40 10 0 20 -262144
-1 -1 0 256;
#X obj 66 116 nbx 1 20 0 6 0 0 place3 place3 3e -40 10 0 20 -262144
-1 -1 0 256;
#X obj 66 139 nbx 1 20 0 6 0 0 place4 place4 4e -40 10 0 20 -262144
-1 -1 0 256;
#X obj 66 163 nbx 1 20 0 6 0 0 place5 place5 5e -40 10 0 20 -262144
-1 -1 0 256;
#X obj 66 186 nbx 1 20 0 6 0 0 place6 place6 6e -40 10 0 20 -262144
-1 -1 0 256;
#X obj 25 242 r classement;
#X msg 25 310 0 \, 1 \, 2 \, 3 \, 4 \, 5;
#X obj 25 331 t f f, f 22;
#X obj 25 352 tabread classement;
#X obj 25 373 pack f f, f 22;
#X msg 25 394 \; place\$2 \$1;
#X obj 154 352 + 1;
#X obj 25 263 b;
#X obj 25 284 del 10;
#X obj 461 141 r RUN_PARADE;
#X obj 461 210 t f f, f 18;
#X obj 461 258 pack f f, f 18;
#X obj 411 55 table gagnants 10;
#X text 24 224 update monitors:;
#X obj 156 162 s gagnants;
#X obj 461 235 tabread gagnants;
#X obj 461 279 route 0 1 2 3, f 19;
#X obj 461 368 s CHEVAL_REWIND;
#X obj 564 368 s CHEVAL_GOTO;
#X msg 272 320 \$2 \$1;
#X msg 461 189 1 \, 2 \, 3 \, 4 \, 5 \, 6;
#X obj 272 343 s gagnants;
#X obj 272 296 pack f f, f 16;
#X obj 461 162 t b;
#X obj 525 326 pack f 150;
#X obj 594 326 pack f 120;
#X obj 662 326 pack f 90;
#X obj 626 249 r CHEVAL_MAXPOS;
#X obj 584 279 * 0.6;
#X obj 626 279 * 0.5;
#X obj 665 279 * 0.4;
#X connect 0 0 1 0;
#X connect 1 0 7 0;
#X connect 1 0 6 0;
#X connect 1 1 8 0;
#X connect 3 0 4 0;
#X connect 6 0 5 0;
#X connect 6 0 15 0;
#X connect 7 0 9 1;
#X connect 8 0 9 1;
#X connect 9 0 17 0;
#X connect 10 0 9 0;
#X connect 11 0 12 1;
#X connect 12 0 13 0;
#X connect 12 0 18 0;
#X connect 13 0 14 0;
#X connect 13 0 48 0;
#X connect 15 0 16 0;
#X connect 15 0 40 0;
#X connect 17 0 12 0;
#X connect 17 1 18 1;
#X connect 17 1 48 1;
#X connect 18 0 19 0;
#X connect 26 0 33 0;
#X connect 27 0 28 0;
#X connect 28 0 29 0;
#X connect 28 1 32 0;
#X connect 29 0 30 0;
#X connect 30 0 31 0;
#X connect 32 0 30 1;
#X connect 33 0 34 0;
#X connect 34 0 27 0;
#X connect 35 0 49 0;
#X connect 36 0 41 0;
#X connect 36 1 37 1;
#X connect 37 0 42 0;
#X connect 41 0 37 0;
#X connect 42 0 43 0;
#X connect 42 1 50 0;
#X connect 42 2 51 0;
#X connect 42 3 52 0;
#X connect 45 0 47 0;
#X connect 46 0 36 0;
#X connect 48 0 45 0;
#X connect 49 0 46 0;
#X connect 50 0 44 0;
#X connect 51 0 44 0;
#X connect 52 0 44 0;
#X connect 53 0 54 0;
#X connect 53 0 55 0;
#X connect 53 0 56 0;
#X connect 54 0 50 1;
#X connect 55 0 51 1;
#X connect 56 0 52 1;
#X coords 0 -1 1 1 85 160 1 20 50;
#X restore 673 290 pd classement;
#N canvas 928 151 663 585 SCENARIO 0;
#X obj 116 91 state Debut;
#X obj 116 164 state Rewind;
#X obj 49 217 state PauseRewind;
#X obj 116 57 bng 15 250 50 0 empty empty empty 17 7 0 10 -262144 -1
-1;
#N canvas 88 262 450 300 Debut 0;
#X obj 254 12 inlet;
#X obj 152 117 sel 1;
#X obj 152 138 spigot;
#X obj 152 159 outlet rewind;
#X obj 152 96 r REWIND_SWITCH;
#X obj 272 98 sel 1;
#X obj 272 119 s STOP_MOTORS;
#X msg 251 144 0;
#X obj 251 164 s ENABLE_BIKES;
#X connect 0 0 5 0;
#X connect 0 0 2 1;
#X connect 1 0 2 0;
#X connect 2 0 3 0;
#X connect 4 0 1 0;
#X connect 5 0 6 0;
#X connect 5 0 7 0;
#X connect 7 0 8 0;
#X restore 116 119 pd Debut;
#X obj 330 102 tgl 15 0 START_SWITCH START_SWITCH START_SWITCH 17 7
0 10 -4034 -1 -1 0 1;
#X obj 330 122 tgl 15 0 STOP_SWITCH STOP_SWITCH STOP_SWITCH 17 7 0
10 -258113 -1 -1 0 1;
#X obj 330 141 tgl 15 0 REWIND_SWITCH REWIND_SWITCH REWIND_SWITCH 17
7 0 10 -260097 -1 -1 0 1;
#X obj 116 14 loadbang;
#X obj 116 35 del 1000;
#N canvas 1 81 591 365 Rewind 0;
#X obj 112 25 inlet;
#X obj 25 255 spigot;
#X obj 238 76 metro 100;
#X obj 283 95 r cheval1-lowswitch;
#X obj 312 116 r cheval2-lowswitch;
#X obj 283 222 &&;
#X obj 312 222 &&;
#X obj 342 222 &&;
#X obj 371 222 &&;
#X obj 400 222 &&;
#X obj 342 139 r cheval3-lowswitch;
#X obj 371 160 r cheval4-lowswitch;
#X obj 400 181 r cheval5-lowswitch;
#X obj 415 199 r cheval6-lowswitch;
#X obj 238 247 f, f 8;
#X obj 265 194 t b b b b b, f 20;
#X obj 238 165 t b b;
#X obj 238 268 sel 1;
#X obj 238 320 outlet PausePreCourse;
#X obj 142 140 s RUN_REWIND;
#X obj 25 210 r STOP_SWITCH;
#X obj 25 231 sel 1;
#X obj 25 287 outlet PauseRewind;
#X msg 100 152 0;
#X obj 100 172 s ENABLE_BIKES;
#X obj 238 289 del 10;
#X obj 142 89 sel 1 0;
#X msg 175 112 stop;
#X connect 0 0 1 1;
#X connect 0 0 2 0;
#X connect 0 0 26 0;
#X connect 1 0 22 0;
#X connect 2 0 16 0;
#X connect 3 0 5 0;
#X connect 4 0 6 0;
#X connect 5 0 14 1;
#X connect 6 0 5 1;
#X connect 7 0 6 1;
#X connect 8 0 7 1;
#X connect 9 0 8 1;
#X connect 10 0 7 0;
#X connect 11 0 8 0;
#X connect 12 0 9 0;
#X connect 13 0 9 1;
#X connect 14 0 17 0;
#X connect 15 0 5 0;
#X connect 15 1 6 0;
#X connect 15 2 7 0;
#X connect 15 3 8 0;
#X connect 15 4 9 0;
#X connect 16 0 14 0;
#X connect 16 1 15 0;
#X connect 17 0 25 0;
#X connect 20 0 21 0;
#X connect 21 0 1 0;
#X connect 23 0 24 0;
#X connect 25 0 18 0;
#X connect 26 0 19 0;
#X connect 26 0 23 0;
#X connect 26 1 27 0;
#X connect 27 0 25 0;
#X restore 116 192 pd Rewind;
#X obj 167 215 state PausePreCourse;
#N canvas 1 81 450 300 PauseRewind 0;
#X obj 142 23 inlet;
#X obj 263 133 sel 1;
#X obj 24 187 spigot;
#X obj 24 107 sel 1;
#X obj 263 154 s STOP_MOTORS;
#X obj 24 86 r START_SWITCH;
#X obj 38 150 sel 1;
#X obj 38 129 r REWIND_SWITCH;
#X obj 24 211 outlet Rewind;
#X connect 0 0 2 1;
#X connect 0 0 1 0;
#X connect 1 0 4 0;
#X connect 2 0 8 0;
#X connect 3 0 2 0;
#X connect 5 0 3 0;
#X connect 6 0 2 0;
#X connect 7 0 6 0;
#X restore 49 245 pd PauseRewind;
#N canvas 1 189 382 280 PausePreCourse 0;
#X obj 112 25 inlet;
#X obj 43 163 spigot;
#X obj 43 139 sel 1;
#X obj 43 118 r START_SWITCH;
#X obj 43 195 outlet Course;
#X connect 0 0 1 1;
#X connect 1 0 4 0;
#X connect 2 0 1 0;
#X connect 3 0 2 0;
#X restore 167 244 pd PausePreCourse;
#X obj 167 269 state Course;
#N canvas 1 81 747 378 Course 0;
#X obj 112 25 inlet;
#X obj 189 138 sel 1;
#X obj 25 255 spigot;
#X obj 417 77 metro 100;
#X obj 417 248 f, f 8;
#X obj 444 195 t b b b b b, f 20;
#X obj 417 166 t b b;
#X obj 25 210 r STOP_SWITCH;
#X obj 25 231 sel 1;
#X obj 462 96 r cheval1-highswitch;
#X obj 491 117 r cheval2-highswitch;
#X obj 521 140 r cheval3-highswitch;
#X obj 550 161 r cheval4-highswitch;
#X obj 579 182 r cheval5-highswitch;
#X obj 594 200 r cheval6-highswitch;
#X obj 579 223 +;
#X obj 550 223 +;
#X obj 521 223 +;
#X obj 491 223 +;
#X obj 462 223 +;
#X obj 479 269 r MIN_ARRIVED;
#X obj 417 269 >= 6;
#X obj 417 318 outlet PausePostCourse;
#X msg 189 159 1;
#X obj 189 182 s ENABLE_BIKES;
#X obj 417 290 sel 1;
#X floatatom 368 283 5 0 0 0 - - -;
#X obj 25 287 outlet PauseCourse;
#X connect 0 0 1 0;
#X connect 0 0 2 1;
#X connect 0 0 3 0;
#X connect 1 0 23 0;
#X connect 2 0 27 0;
#X connect 3 0 6 0;
#X connect 4 0 21 0;
#X connect 4 0 26 0;
#X connect 5 0 19 0;
#X connect 5 1 18 0;
#X connect 5 2 17 0;
#X connect 5 3 16 0;
#X connect 5 4 15 0;
#X connect 6 0 4 0;
#X connect 6 1 5 0;
#X connect 7 0 8 0;
#X connect 8 0 2 0;
#X connect 9 0 19 0;
#X connect 10 0 18 0;
#X connect 11 0 17 0;
#X connect 12 0 16 0;
#X connect 13 0 15 0;
#X connect 14 0 15 1;
#X connect 15 0 16 1;
#X connect 16 0 17 1;
#X connect 17 0 18 1;
#X connect 18 0 19 1;
#X connect 19 0 4 1;
#X connect 20 0 21 1;
#X connect 21 0 25 0;
#X connect 23 0 24 0;
#X connect 25 0 22 0;
#X restore 167 297 pd Course;
#X f 16;
#X obj 204 198 bng 15 250 50 0 empty empty empty 17 7 0 10 -262144
-1 -1;
#X obj 127 324 state PauseCourse;
#N canvas 1 81 450 300 PauseCourse 0;
#X obj 142 23 inlet;
#X obj 250 129 sel 1;
#X obj 24 187 spigot;
#X obj 24 158 sel 1;
#X obj 294 150 s STOP_MOTORS;
#X obj 24 137 r START_SWITCH;
#X obj 139 148 sel 1;
#X obj 139 127 r REWIND_SWITCH;
#X obj 139 177 spigot;
#X obj 24 212 outlet Course;
#X msg 250 152 0;
#X obj 250 172 s ENABLE_BIKES;
#X obj 139 201 outlet PreParade;
#X connect 0 0 2 1;
#X connect 0 0 1 0;
#X connect 0 0 8 1;
#X connect 1 0 10 0;
#X connect 2 0 9 0;
#X connect 3 0 2 0;
#X connect 5 0 3 0;
#X connect 6 0 8 0;
#X connect 7 0 6 0;
#X connect 8 0 12 0;
#X connect 10 0 11 0;
#X restore 127 352 pd PauseCourse;
#N canvas 179 487 382 280 PausePostCourse 0;
#X obj 112 25 inlet;
#X obj 43 172 spigot;
#X obj 43 139 sel 1;
#X obj 43 118 r START_SWITCH;
#X obj 43 195 outlet PreParade;
#X obj 139 138 sel 1;
#X obj 139 117 r REWIND_SWITCH;
#X obj 260 121 sel 1;
#X obj 260 165 s ENABLE_BIKES;
#X msg 260 142 0;
#X connect 0 0 1 1;
#X connect 0 0 7 0;
#X connect 1 0 4 0;
#X connect 2 0 1 0;
#X connect 3 0 2 0;
#X connect 5 0 1 0;
#X connect 6 0 5 0;
#X connect 7 0 9 0;
#X connect 9 0 8 0;
#X restore 260 349 pd PausePostCourse;
#X obj 260 320 state PausePostCourse;
#X obj 233 387 state Parade;
#N canvas 1 81 747 378 Parade 0;
#X obj 112 25 inlet;
#X obj 403 205 sel 1;
#X obj 25 255 spigot;
#X obj 25 210 r STOP_SWITCH;
#X obj 25 231 sel 1;
#X obj 403 249 s ENABLE_BIKES;
#X msg 403 226 0;
#X obj 372 271 s RUN_PARADE;
#X obj 163 262 spigot;
#X obj 266 243 sel 1;
#X obj 266 222 r START_SWITCH;
#X obj 163 240 sel 1;
#X obj 163 219 r REWIND_SWITCH;
#X obj 163 287 outlet Rewind;
#X obj 25 287 outlet PauseParade;
#X connect 0 0 1 0;
#X connect 0 0 2 1;
#X connect 0 0 8 1;
#X connect 1 0 6 0;
#X connect 1 0 7 0;
#X connect 2 0 14 0;
#X connect 3 0 4 0;
#X connect 4 0 2 0;
#X connect 6 0 5 0;
#X connect 8 0 13 0;
#X connect 10 0 9 0;
#X connect 11 0 8 0;
#X connect 12 0 11 0;
#X restore 233 417 pd Parade;
#X f 16;
#X obj 190 450 state PauseParade;
#N canvas 172 506 450 300 PauseParade 0;
#X obj 142 23 inlet;
#X obj 250 129 sel 1;
#X obj 24 187 spigot;
#X obj 24 158 sel 1;
#X obj 250 154 s STOP_MOTORS;
#X obj 24 137 r START_SWITCH;
#X obj 139 148 sel 1;
#X obj 139 127 r REWIND_SWITCH;
#X obj 24 210 outlet Parade;
#X connect 0 0 2 1;
#X connect 0 0 1 0;
#X connect 1 0 4 0;
#X connect 2 0 8 0;
#X connect 3 0 2 0;
#X connect 5 0 3 0;
#X connect 6 0 2 0;
#X connect 7 0 6 0;
#X restore 190 478 pd PauseParade;
#X obj 410 213 t b;
#X obj 503 52 r RUN_REWIND;
#X msg 503 73 -1;
#X obj 503 94 s CHEVAL_REWIND;
#X obj 500 141 r STOP_MOTORS;
#X msg 500 162 -1;
#X obj 500 183 s CHEVAL_STOP;
#X obj 470 272 r STATE;
#X symbolatom 470 293 10 0 0 0 - - -;
#X obj 459 332 print;
#X connect 0 0 4 0;
#X connect 1 0 10 0;
#X connect 2 0 12 0;
#X connect 3 0 0 0;
#X connect 4 0 1 0;
#X connect 8 0 9 0;
#X connect 9 0 3 0;
#X connect 10 0 2 0;
#X connect 10 1 11 0;
#X connect 11 0 13 0;
#X connect 12 0 1 0;
#X connect 13 0 14 0;
#X connect 14 0 15 0;
#X connect 15 0 17 0;
#X connect 15 1 20 0;
#X connect 16 0 11 0;
#X connect 17 0 18 0;
#X connect 18 0 14 0;
#X connect 18 1 21 0;
#X connect 19 0 21 0;
#X connect 20 0 19 0;
#X connect 21 0 22 0;
#X connect 22 0 23 0;
#X connect 22 1 25 0;
#X connect 23 0 24 0;
#X connect 24 0 21 0;
#X connect 25 0 1 0;
#X connect 26 0 27 0;
#X connect 27 0 28 0;
#X connect 29 0 30 0;
#X connect 30 0 31 0;
#X connect 32 0 33 0;
#X restore 13 286 pd SCENARIO;
#N canvas 110 223 1187 704 AMBIANCE 1;
#X obj 33 183 *~;
#X obj 220 178 *~;
#X obj 268 34 hsl 128 15 0 1 0 1 empty empty empty -2 -8 0 10 -262144
-1 -1 11500 1;
#X obj 265 54 pow 2;
#X msg 265 120 \$1 20;
#X obj 265 141 line~;
#X obj 33 204 throw~ ambianceL;
#X obj 219 203 throw~ ambianceR;
#X obj 561 116 s cfambiance;
#X msg 632 175 faderange 20 50;
#X msg 484 71 switch \$1;
#X msg 676 78 bank 1;
#X msg 552 71 faderange 500 500;
#X msg 727 78 bank 2;
#X msg 772 77 bank 3;
#X msg 632 194 faderange 10 10;
#X msg 729 22 faderange 20000 3000;
#N canvas 204 248 450 300 fadeon/off 0;
#X obj 110 49 tgl 15 0 empty empty empty 17 7 0 10 -262144 -1 -1 0
1;
#X obj 135 73 sel 0 1;
#X obj 201 177 del 1000;
#X msg 201 198 0;
#X msg 201 154 stop;
#X msg 46 147 0 \$1;
#X obj 46 125 f 1000;
#X obj 97 125 f 1000;
#X msg 97 146 1 \$1;
#X obj 73 176 line;
#X msg 264 199 1;
#X obj 217 254 outlet switch;
#X obj 73 220 outlet vol;
#X obj 73 197 pow 2;
#X obj 135 48 inlet;
#X obj 282 80 f;
#X floatatom 299 120 5 0 0 0 - - -;
#X msg 282 52 5000;
#X obj 217 232 change;
#X obj 282 22 loadbang;
#X connect 0 0 1 0;
#X connect 1 0 2 0;
#X connect 1 0 6 0;
#X connect 1 1 4 0;
#X connect 1 1 7 0;
#X connect 1 1 10 0;
#X connect 2 0 3 0;
#X connect 3 0 18 0;
#X connect 4 0 2 0;
#X connect 5 0 9 0;
#X connect 6 0 5 0;
#X connect 7 0 8 0;
#X connect 8 0 9 0;
#X connect 9 0 13 0;
#X connect 10 0 18 0;
#X connect 13 0 12 0;
#X connect 14 0 1 0;
#X connect 15 0 16 0;
#X connect 15 0 2 1;
#X connect 15 0 7 1;
#X connect 15 0 6 1;
#X connect 17 0 15 0;
#X connect 18 0 11 0;
#X connect 19 0 17 0;
#X restore 409 47 pd fadeon/off;
#X obj 409 26 tgl 15 0 empty empty empty 17 7 0 10 -262144 -1 -1 1
1;
#X obj 265 75 *;
#X obj 291 76 t b f;
#X obj 95 577 *~;
#X obj 348 584 *~;
#X obj 379 501 hsl 128 15 0 1 0 1 empty empty empty -2 -8 0 10 -262144
-1 -1 12400 1;
#X obj 376 521 pow 2;
#X obj 95 598 throw~ ambianceL;
#X obj 347 609 throw~ ambianceR;
#X obj 226 417 bng 15 250 50 0 empty empty empty 17 7 0 10 -262144
-1 -1;
#X obj 222 478 bng 15 250 50 0 empty empty empty 17 7 0 10 -262144
-1 -1;
#X msg 142 415 7;
#X msg 596 22 faderange 10000 5000;
#X msg 115 415 6;
#X msg 58 477 8;
#X msg 92 477 9;
#X msg 131 476 10;
#X msg 166 475 6;
#X msg 773 114 bank 6;
#X msg 178 415 5;
#X msg 27 418 3;
#X msg 634 155 faderange 2000 1000;
#X obj 634 135 loadbang;
#X obj 4 42 crossfade-stereo cfambiance 1 2000 1000;
#N canvas 134 128 563 556 climax 0;
#X obj 79 60 metro 100;
#X msg 98 102 0 \, 1 \, 2 \, 3 \, 4 \, 5;
#X obj 79 81 t b b b;
#X obj 98 147 tabread postable;
#X obj 98 168 / 274;
#X obj 139 168 r CHEVAL_MAXPOS;
#X obj 98 123 t f f, f 26;
#X obj 251 167 tabread gagnants;
#X obj 251 188 == 0;
#X obj 98 211 *, f 26;
#X obj 98 232 +;
#X obj 98 255 f;
#X msg 131 232 0;
#X obj 79 278 f, f 4;
#X obj 50 27 tgl 15 0 empty empty empty 17 7 0 10 -262144 -1 -1 1 1
;
#X floatatom 270 391 5 0 0 0 - - -;
#X obj 251 146 + 1;
#X obj 441 348 tabread postable;
#X obj 441 321 hradio 15 1 0 6 empty empty empty 0 -8 0 10 -262144
-1 -1 0;
#X floatatom 441 369 5 0 0 0 - - -;
#X obj 98 189 pow 2;
#X obj 273 444 pow 0.5;
#X floatatom 273 465 5 0 0 0 - - -;
#X obj 273 423 / 3;
#X obj 79 369 outlet;
#X obj 79 303 mavg 50;
#X obj 79 30 loadbang;
#X connect 0 0 2 0;
#X connect 1 0 6 0;
#X connect 2 0 13 0;
#X connect 2 1 1 0;
#X connect 2 2 12 0;
#X connect 3 0 4 0;
#X connect 4 0 20 0;
#X connect 5 0 4 1;
#X connect 6 0 3 0;
#X connect 6 1 16 0;
#X connect 7 0 8 0;
#X connect 8 0 9 1;
#X connect 9 0 10 0;
#X connect 10 0 11 0;
#X connect 11 0 10 1;
#X connect 11 0 13 1;
#X connect 12 0 11 0;
#X connect 13 0 25 0;
#X connect 14 0 0 0;
#X connect 16 0 7 0;
#X connect 17 0 19 0;
#X connect 18 0 17 0;
#X connect 20 0 9 0;
#X connect 21 0 22 0;
#X connect 23 0 21 0;
#X connect 25 0 24 0;
#X connect 26 0 0 0;
#X restore 381 99 pd climax;
#X obj 28 268 r STATE;
#X msg 101 310 1;
#X msg 175 309 0;
#X obj 28 336 spigot;
#X obj 28 289 sel Course PausePreCourse;
#X obj 27 358 bng 15 250 50 0 empty empty start 17 7 0 10 -262144 -1
-1;
#X obj 227 268 r STATE;
#X obj 678 229 r classement;
#X obj 678 249 route list;
#X obj 678 271 unpack f;
#X obj 678 292 sel 0 1;
#X msg 678 315 8;
#X msg 710 315 9;
#X msg 742 315 10;
#X msg 808 266 4;
#X obj 808 245 r PLAY_REPRISE;
#X obj 409 4 loadbang;
#X obj 21 103 crossfade-stereo cfambiance 1 2000 1000;
#X obj 94 542 clone noteplayer-simple-stereo 8 evenements;
#X obj 70 505 play_rnd_note evenements 8;
#X obj 74 444 play_rnd_note evenements 8;
#X obj 678 375 play_rnd_note evenements 8;
#X obj 710 355 play_rnd_note evenements 8;
#X obj 742 337 play_rnd_note evenements 8;
#X obj 808 286 play_rnd_note evenements 8;
#X obj 227 289 sel Course;
#X msg 227 311 bank 2;
#X msg 284 312 bank 1;
#X obj 284 334 s cfambiance;
#X msg 453 166 0;
#X obj 396 124 r STATE;
#X obj 396 145 sel Course;
#X msg 396 166 1;
#X obj 381 189 *;
#X obj 381 210 > 0.5;
#X obj 381 231 change;
#X obj 452 250 metro 500;
#X obj 452 271 f;
#X obj 452 292 t b f, f 14;
#X obj 452 313 random 1e+06;
#X obj 452 334 / 1e+06;
#X obj 452 402 <, f 14;
#X obj 452 378 * 6;
#X obj 452 423 sel 1;
#X obj 422 427 bng 15 250 50 0 empty empty empty 17 7 0 10 -262144
-1 -1;
#X obj 452 355 pow 0.8;
#X obj 596 278 change;
#X obj 596 257 > 2;
#X obj 452 465 play_rnd_note evenements 8;
#X msg 452 444 7;
#X obj 588 594 *~;
#X obj 802 594 *~;
#X obj 588 615 throw~ ambianceL;
#X obj 801 619 throw~ ambianceR;
#N canvas 204 248 450 300 fadeon/off 0;
#X obj 110 49 tgl 15 0 empty empty empty 17 7 0 10 -262144 -1 -1 0
1;
#X obj 135 73 sel 0 1;
#X obj 201 177 del 1000;
#X msg 201 198 0;
#X msg 201 154 stop;
#X msg 46 147 0 \$1;
#X obj 46 125 f 1000;
#X obj 97 125 f 1000;
#X msg 97 146 1 \$1;
#X obj 73 176 line;
#X msg 264 199 1;
#X obj 217 254 outlet switch;
#X obj 73 220 outlet vol;
#X obj 73 197 pow 2;
#X obj 135 48 inlet;
#X obj 282 80 f;
#X floatatom 299 120 5 0 0 0 - - -;
#X msg 282 52 5000;
#X obj 217 232 change;
#X obj 282 22 loadbang;
#X connect 0 0 1 0;
#X connect 1 0 2 0;
#X connect 1 0 6 0;
#X connect 1 1 4 0;
#X connect 1 1 7 0;
#X connect 1 1 10 0;
#X connect 2 0 3 0;
#X connect 3 0 18 0;
#X connect 4 0 2 0;
#X connect 5 0 9 0;
#X connect 6 0 5 0;
#X connect 7 0 8 0;
#X connect 8 0 9 0;
#X connect 9 0 13 0;
#X connect 10 0 18 0;
#X connect 13 0 12 0;
#X connect 14 0 1 0;
#X connect 15 0 16 0;
#X connect 15 0 2 1;
#X connect 15 0 7 1;
#X connect 15 0 6 1;
#X connect 17 0 15 0;
#X connect 18 0 11 0;
#X connect 19 0 17 0;
#X restore 669 453 pd fadeon/off;
#X obj 596 299 tgl 15 0 empty empty empty 17 7 0 10 -262144 -1 -1 0
1;
#X obj 846 456 hsl 128 15 0 1 0 1 empty empty empty -2 -8 0 10 -262144
-1 -1 12000 1;
#X obj 843 476 pow 2;
#X msg 843 519 \$1 20;
#X obj 843 540 line~;
#X obj 843 497 *;
#X obj 869 498 t b f;
#X msg 745 473 switch \$1;
#X obj 589 566 crossfade-stereo bagarre 6 2000 1000;
#X obj 381 252 + 1;
#X msg 381 274 bank \$1;
#X connect 0 0 6 0;
#X connect 1 0 7 0;
#X connect 2 0 3 0;
#X connect 3 0 19 0;
#X connect 4 0 5 0;
#X connect 5 0 0 1;
#X connect 5 0 1 1;
#X connect 9 0 8 0;
#X connect 10 0 8 0;
#X connect 11 0 8 0;
#X connect 12 0 8 0;
#X connect 13 0 8 0;
#X connect 14 0 8 0;
#X connect 15 0 8 0;
#X connect 16 0 8 0;
#X connect 17 0 20 0;
#X connect 17 1 10 0;
#X connect 18 0 17 0;
#X connect 19 0 4 0;
#X connect 20 0 19 0;
#X connect 20 1 19 1;
#X connect 21 0 25 0;
#X connect 22 0 26 0;
#X connect 23 0 24 0;
#X connect 24 0 22 1;
#X connect 24 0 21 1;
#X connect 27 0 63 1;
#X connect 28 0 62 1;
#X connect 29 0 63 0;
#X connect 30 0 8 0;
#X connect 31 0 63 0;
#X connect 32 0 62 0;
#X connect 33 0 62 0;
#X connect 34 0 62 0;
#X connect 35 0 62 0;
#X connect 36 0 8 0;
#X connect 37 0 63 0;
#X connect 38 0 63 0;
#X connect 39 0 8 0;
#X connect 40 0 39 0;
#X connect 41 0 0 0;
#X connect 41 1 1 0;
#X connect 42 0 76 0;
#X connect 43 0 47 0;
#X connect 44 0 46 1;
#X connect 45 0 46 1;
#X connect 46 0 48 0;
#X connect 47 0 46 0;
#X connect 47 1 44 0;
#X connect 47 2 45 0;
#X connect 48 0 38 0;
#X connect 49 0 68 0;
#X connect 50 0 51 0;
#X connect 51 0 52 0;
#X connect 52 0 53 0;
#X connect 53 0 54 0;
#X connect 53 1 55 0;
#X connect 53 2 56 0;
#X connect 54 0 64 0;
#X connect 55 0 65 0;
#X connect 56 0 66 0;
#X connect 57 0 67 0;
#X connect 58 0 57 0;
#X connect 59 0 18 0;
#X connect 60 0 0 0;
#X connect 60 1 1 0;
#X connect 61 0 21 0;
#X connect 61 1 22 0;
#X connect 68 0 69 0;
#X connect 68 1 70 0;
#X connect 69 0 41 0;
#X connect 70 0 71 0;
#X connect 72 0 76 1;
#X connect 73 0 74 0;
#X connect 74 0 75 0;
#X connect 74 1 72 0;
#X connect 75 0 76 1;
#X connect 76 0 77 0;
#X connect 76 0 80 1;
#X connect 76 0 90 0;
#X connect 77 0 78 0;
#X connect 78 0 79 0;
#X connect 78 0 107 0;
#X connect 79 0 80 0;
#X connect 80 0 81 0;
#X connect 81 0 82 0;
#X connect 81 1 84 1;
#X connect 82 0 83 0;
#X connect 83 0 88 0;
#X connect 84 0 86 0;
#X connect 85 0 84 0;
#X connect 86 0 92 0;
#X connect 88 0 85 0;
#X connect 89 0 98 0;
#X connect 90 0 89 0;
#X connect 92 0 91 0;
#X connect 93 0 95 0;
#X connect 94 0 96 0;
#X connect 97 0 104 0;
#X connect 97 1 105 0;
#X connect 98 0 97 0;
#X connect 99 0 100 0;
#X connect 100 0 103 0;
#X connect 101 0 102 0;
#X connect 102 0 93 1;
#X connect 102 0 94 1;
#X connect 103 0 101 0;
#X connect 104 0 103 0;
#X connect 104 1 103 1;
#X connect 105 0 106 0;
#X connect 106 0 93 0;
#X connect 106 1 94 0;
#X connect 107 0 108 0;
#X connect 108 0 60 0;
#X restore 14 344 pd AMBIANCE;
#N canvas 903 156 587 631 MASTERaudio 1;
#X obj 403 57 loadbang;
#X obj 430 101 ggee/getdir;
#X msg 430 123 symbol \$1/WAVS;
#X obj 430 144 s NOTEBANK-DATASDIR;
#X obj 382 58 bng 15 250 50 0 empty empty empty 17 7 0 10 -262144 -1
-1;
#X obj 403 167 s NOTEBANK-LOADTABLES;
#X obj 403 78 t b b;
#X obj 23 245 *~;
#X obj 182 241 *~;
#X obj 233 120 hsl 128 15 0 1 0 0 empty empty empty -2 -8 0 10 -262144
-1 -1 9900 1;
#X obj 230 141 pow 2;
#X msg 230 162 \$1 20;
#X obj 230 183 line~;
#X obj 182 215 catch~ ambianceR;
#X obj 23 318 throw~ masterL;
#X obj 182 322 throw~ masterR;
#X obj 25 38 catch~ masterL;
#X obj 130 38 catch~ masterR;
#X obj 24 219 catch~ ambianceL;
#X obj 25 59 hip~ 50;
#X obj 25 97 z~ 64;
#X obj 65 96 limiter~;
#X obj 25 118 *~;
#X obj 130 60 hip~ 50;
#X obj 130 98 z~ 64;
#X obj 170 97 limiter~;
#X obj 130 119 *~;
#X obj 25 139 dac~, f 18;
#X obj 31 350 adc~ 1;
#X obj 31 446 z~ 64;
#X obj 71 445 limiter~;
#X obj 31 467 *~;
#X obj 31 418 *~ 2;
#X obj 32 539 *~;
#X obj 32 592 throw~ masterL;
#X obj 168 449 pow 2;
#X msg 168 470 \$1 20;
#X obj 168 491 line~;
#X obj 171 429 hsl 128 15 0 1 0 0 empty empty empty -2 -8 0 10 -262144
-1 -1 0 1;
#X obj 168 405 r MIC_POT;
#X obj 230 99 r AMBIANCE_POT;
#X obj 126 592 throw~ masterR;
#X obj 126 549 *~;
#N canvas 559 94 649 437 mic_fx 0;
#X obj 126 5 inlet~;
#X obj 73 388 outlet~;
#X obj 267 390 outlet~;
#X obj 191 51 pow 2;
#X msg 191 72 \$1 20;
#X obj 191 93 line~;
#X obj 194 31 hsl 128 15 0 1 0 1 empty empty empty -2 -8 0 10 -262144
-1 -1 12400 1;
#X obj 127 132 *~;
#X obj 191 7 r FX_POT;
#X obj 329 227 fuzz~ 0.03;
#X obj 52 270 bp~ 2000 10;
#X obj 329 256 bp~ 4000 10;
#X obj 53 230 fuzz~ 0.03;
#X floatatom 224 221 5 0 100 0 - - -;
#X obj 126 26 hip~ 50;
#X floatatom 285 297 5 0 0 0 - - -;
#X floatatom 234 262 5 0 100 0 - - -;
#X obj 160 325 rev3~ 100 90 3000 30;
#X obj 53 186 delay~ 400;
#X obj 329 186 delay~ 650;
#X obj 329 279 *~ 0.5;
#X obj 52 291 *~ 1;
#X connect 0 0 14 0;
#X connect 3 0 4 0;
#X connect 4 0 5 0;
#X connect 5 0 7 1;
#X connect 6 0 3 0;
#X connect 7 0 17 0;
#X connect 7 0 18 0;
#X connect 7 0 19 0;
#X connect 8 0 6 0;
#X connect 9 0 11 0;
#X connect 10 0 17 1;
#X connect 10 0 21 0;
#X connect 11 0 17 1;
#X connect 11 0 20 0;
#X connect 12 0 10 0;
#X connect 13 0 17 2;
#X connect 14 0 7 0;
#X connect 15 0 17 5;
#X connect 16 0 17 3;
#X connect 17 0 1 0;
#X connect 17 1 2 0;
#X connect 18 0 12 0;
#X connect 19 0 9 0;
#X connect 20 0 2 0;
#X connect 21 0 1 0;
#X restore 76 492 pd mic_fx;
#X obj 35 289 rev3~ 90 90 3000 40, f 54;
#X obj 104 267 delay~ 350;
#X obj 35 267 delay~ 250;
#X obj 401 216 notebank 2 2 fouleactive;
#X obj 400 195 notebank 1 3 foulepassive;
#X obj 401 236 notebank 3 3 start;
#X obj 401 254 notebank 4 2 reprise;
#X obj 401 272 notebank 5 3 depassement;
#X obj 401 291 notebank 6 4 bagarre;
#X obj 401 310 notebank 7 4 evenements;
#X obj 401 329 notebank 8 2 1er;
#X obj 401 348 notebank 9 3 2eme;
#X obj 401 366 notebank 10 2 3eme;
#X obj 30 394 hip~ 200;
#X obj 31 371 motex/noisegate~ 54 2 500;
#X connect 0 0 6 0;
#X connect 1 0 2 0;
#X connect 2 0 3 0;
#X connect 4 0 6 0;
#X connect 6 0 5 0;
#X connect 6 1 1 0;
#X connect 7 0 14 0;
#X connect 7 0 46 0;
#X connect 8 0 15 0;
#X connect 8 0 45 0;
#X connect 9 0 10 0;
#X connect 10 0 11 0;
#X connect 11 0 12 0;
#X connect 12 0 7 1;
#X connect 12 0 8 1;
#X connect 13 0 8 0;
#X connect 16 0 19 0;
#X connect 17 0 23 0;
#X connect 18 0 7 0;
#X connect 19 0 20 0;
#X connect 19 0 21 0;
#X connect 20 0 22 0;
#X connect 21 0 22 1;
#X connect 22 0 27 0;
#X connect 23 0 24 0;
#X connect 23 0 25 0;
#X connect 24 0 26 0;
#X connect 25 0 26 1;
#X connect 26 0 27 1;
#X connect 28 0 58 0;
#X connect 29 0 31 0;
#X connect 30 0 31 1;
#X connect 31 0 33 0;
#X connect 31 0 42 0;
#X connect 31 0 43 0;
#X connect 32 0 29 0;
#X connect 32 0 30 0;
#X connect 33 0 34 0;
#X connect 35 0 36 0;
#X connect 36 0 37 0;
#X connect 37 0 33 1;
#X connect 37 0 42 1;
#X connect 38 0 35 0;
#X connect 39 0 38 0;
#X connect 40 0 9 0;
#X connect 42 0 41 0;
#X connect 43 0 33 0;
#X connect 43 1 42 0;
#X connect 44 0 14 0;
#X connect 44 1 15 0;
#X connect 45 0 44 1;
#X connect 46 0 44 0;
#X connect 57 0 32 0;
#X connect 58 0 57 0;
#X restore 14 321 pd MASTERaudio;
#X obj 9 6 declare -stdpath Fraise -path notebank;
#X obj 77 400 loadbang;
#X obj 77 442 s CHEVAL_MAXPOS;
#X msg 77 421 274;
#N canvas 139 512 645 504 dépassements 0;
#X obj 69 32 table postable 10;
#X obj 70 98 detect_ranking_change postable;
#X obj 70 71 bng 15 250 50 0 empty empty empty 17 7 0 10 -262144 -1
-1;
#X obj 70 123 tabread postable;
#X text 71 16 positions \, indexed from 0 to 5;
#X obj 181 123 r CHEVAL_MAXPOS;
#X obj 70 165 moses 0.5;
#X obj 121 186 b;
#X obj 121 207 del 1;
#X obj 121 228 bng 15 250 50 0 empty empty empty 17 7 0 10 -262144
-1 -1;
#X obj 70 144 / 274, f 19;
#X obj 71 357 *~;
#X obj 324 364 *~;
#X obj 342 317 hsl 128 15 0 1 0 1 empty empty empty -2 -8 0 10 -262144
-1 -1 12400 1;
#X obj 339 337 pow 2;
#X obj 71 378 throw~ ambianceL;
#X obj 323 389 throw~ ambianceR;
#X obj 273 244 bng 15 250 50 0 empty empty empty 17 7 0 10 -262144
-1 -1;
#X msg 121 249 5;
#X obj 121 271 play_rnd_note depasse 4;
#X obj 70 322 clone noteplayer-simple-stereo 4 depasse;
#X connect 1 0 3 0;
#X connect 2 0 1 0;
#X connect 3 0 10 0;
#X connect 5 0 10 1;
#X connect 6 1 7 0;
#X connect 7 0 8 0;
#X connect 8 0 9 0;
#X connect 9 0 18 0;
#X connect 10 0 6 0;
#X connect 11 0 15 0;
#X connect 12 0 16 0;
#X connect 13 0 14 0;
#X connect 14 0 12 1;
#X connect 14 0 11 1;
#X connect 17 0 19 1;
#X connect 18 0 19 0;
#X connect 20 0 11 0;
#X connect 20 1 12 0;
#X restore 765 289 pd dépassements;
#X connect 22 0 23 0;
#X connect 30 0 32 0;
#X connect 32 0 31 0;
