#N canvas 185 173 599 770 10;
#X obj 16 116 fruit/fruit 1 cheval\$1 \$2 fwCheval;
#X obj 24 57 tgl 15 0 cheval\$1-connected cheval\$1-connected connecté
17 7 0 10 -262144 -1 -1 1 1;
#X text 234 31 diametre poulie 90mm : circ 283mm;
#X obj 258 128 tgl 15 0 empty empty empty 17 7 0 10 -262144 -1 -1 1
1;
#X obj 258 84 fruit/receive cheval\$1;
#X obj 258 148 s cheval\$1-connected;
#X obj 24 91 tgl 15 0 cheval\$1-highswitch cheval\$1-highswitch arrivé
17 7 0 10 -262144 -1 -1 0 1;
#X obj 24 74 tgl 15 0 cheval\$1-lowswitch cheval\$1-lowswitch au_départ
17 7 0 10 -262144 -1 -1 1 1;
#X obj 14 176 dcmotor/motor cheval\$1 120 motor;
#X floatatom 433 554 5 0 0 0 - - -;
#X msg 417 688 dest \$1;
#X obj 417 710 s cheval\$1-motor-ramp-params;
#X obj 258 105 route present;
#X obj 258 332 fruit/receive cheval\$1;
#X obj 258 353 route 10;
#X obj 153 64 nbx 5 14 -1e+37 1e+37 0 0 cheval\$1-pos cheval\$1-pos
position 0 -6 0 10 -262144 -1 -1 0 256;
#X obj 329 454 s cheval\$1-lowswitch;
#X obj 364 434 s cheval\$1-highswitch;
#X obj 19 514 hsl 128 15 0 1 0 0 empty empty empty -2 -8 0 10 -262144
-1 -1 0 1;
#X obj 165 514 hsl 128 15 0 1 0 0 empty empty empty -2 -8 0 10 -262144
-1 -1 0 1;
#X obj 16 535 clip 0 1;
#X obj 16 556 change;
#X msg 16 577 10 \$1;
#X obj 162 535 clip 0 1;
#X obj 162 556 change;
#X obj 162 494 r cheval\$1-LampeArrivée;
#X msg 162 577 11 \$1;
#X obj 16 598 unpack f f;
#X obj 73 619 * 1010;
#X obj 16 659 pack f f, f 10;
#X msg 16 680 c \$1 i \$2;
#X obj 73 639 i;
#X msg 145 678 WRITE;
#X text 143 664 eeprom;
#X obj 15 399 s cheval\$1-motor-posPid-params;
#X obj 15 355 s cheval\$1-motor-ramp-params;
#X text 48 10 cheval num fruit-id;
#X obj 16 494 r cheval\$1-LampeDépart;
#X obj 153 92 nbx 5 14 -1e+37 1e+37 0 0 cheval\$1-dest cheval\$1-dest
destination 0 -6 0 10 -262144 -1 -1 0 256;
#X obj 258 473 s cheval\$1-pos;
#X obj 417 666 r cheval\$1-dest;
#X obj 433 575 s cheval\$1-dest;
#X msg 202 626 c 120 c 4 i \$1;
#X floatatom 221 591 5 0 0 0 - - -;
#X obj 16 701 fruit/send2 cheval\$1, f 22;
#X obj 404 415 s cheval\$1-pwm;
#X obj 494 416 s cheval\$1-ramppos;
#X obj 443 126 nbx 5 14 -1e+37 1e+37 0 0 cheval\$1-ramppos cheval\$1-ramppos
ramp_position 0 -6 0 10 -262144 -1 -1 0 256;
#X obj 96 64 nbx 5 14 -1e+37 1e+37 0 0 cheval\$1-pwm cheval\$1-pwm
PWM 0 -6 0 10 -262144 -1 -1 0 256;
#N canvas 269 454 303 236 16bits 0;
#X obj 80 43 * 256;
#X obj 80 64 +, f 9;
#X obj 80 158 outlet;
#X obj 80 17 inlet;
#X obj 131 17 inlet;
#X obj 80 86 moses 32767;
#X obj 143 127 - 65536;
#X connect 0 0 1 0;
#X connect 1 0 5 0;
#X connect 3 0 0 0;
#X connect 4 0 1 1;
#X connect 5 0 2 0;
#X connect 5 1 6 0;
#X connect 6 0 2 0;
#X restore 404 397 pd 16bits;
#N canvas 1 189 303 236 16bits 0;
#X obj 80 43 * 256;
#X obj 80 64 +, f 9;
#X obj 80 158 outlet;
#X obj 80 17 inlet;
#X obj 131 17 inlet;
#X obj 80 86 moses 32767;
#X obj 143 127 - 65536;
#X connect 0 0 1 0;
#X connect 1 0 5 0;
#X connect 3 0 0 0;
#X connect 4 0 1 1;
#X connect 5 0 2 0;
#X connect 5 1 6 0;
#X connect 6 0 2 0;
#X restore 494 396 pd 16bits;
#X obj 225 565 hsl 128 15 -1023 1023 0 0 empty empty empty -2 -8 0
10 -262144 -1 -1 0 1;
#X msg 224 541 0;
#X msg 312 640 c 20 c 0 i \$1;
#X floatatom 363 571 8 35 195 2 servo - -;
#X obj 363 591 * 100;
#X floatatom 363 612 8 0 0 0 - - -;
#X obj 98 94 tgl 15 0 cheval\$1-actif cheval\$1-actif actif -5 -6 0
10 -204786 -1 -1 0 1;
#X obj 250 684 r ENABLE_BIKES;
#X obj 250 705 s cheval\$1-actif;
#N canvas 51 392 818 538 AUTOMAT 0;
#X obj 266 43 r cheval\$1-actif;
#X obj 134 79 r PULSE_VELOS;
#X obj 303 441 s LAMPE_VELOS;
#X obj 303 420 list prepend \$1;
#X obj 134 100 route \$1;
#X floatatom 42 39 5 0 0 0 - - -;
#X obj 42 59 t b;
#X obj 42 80 i;
#X obj 42 101 + 1;
#X obj 42 122 mod 256;
#X obj 134 121 f;
#X obj 134 142 t f f, f 7;
#X obj 135 210 -, f 4;
#X obj 135 278 spigot;
#X obj 135 185 spigot;
#X msg 168 165 1;
#X obj 266 133 sel 1;
#X msg 266 154 0;
#X obj 280 111 tgl 15 0 empty empty empty 17 7 0 10 -262144 -1 -1 1
1;
#X obj 280 89 route present;
#X obj 280 66 fruit/receive velos;
#X obj 135 231 moses 0;
#X obj 135 252 + 256;
#X obj 135 307 * 1, f 10;
#X obj 135 354 +, f 4;
#X obj 156 331 r cheval\$1-dest;
#X obj 135 407 clip 0 255;
#X obj 135 437 s cheval\$1-dest;
#X floatatom 55 441 5 0 0 0 - - -;
#X floatatom 59 163 5 0 0 0 - - -;
#X floatatom 80 403 5 0 0 0 - - -;
#X floatatom 60 252 5 0 0 0 - - -;
#X obj 192 283 r PEDALE_TO_CHEVAL_GAIN;
#X obj 444 50 r cheval\$1-lowswitch;
#X obj 444 71 sel 1;
#X msg 471 113 0 \, 1;
#X msg 471 134 homed \$1;
#X obj 471 156 s cheval\$1-motor-params;
#X obj 444 92 t b b;
#X msg 425 124 0;
#X obj 425 176 s cheval\$1-dest;
#X obj 436 208 r CHEVAL_REWIND;
#X obj 436 229 route \$1 -1;
#X obj 674 227 route \$1 -1;
#X obj 674 206 r CHEVAL_GOTO;
#X obj 436 256 b;
#X msg 436 277 -1023;
#X obj 436 298 s cheval\$1-setpwm;
#X obj 674 255 s cheval\$1-dest;
#X obj 650 127 s CHEVAL_ARRIVE;
#X obj 650 83 sel 1;
#X obj 650 104 f \$1;
#X obj 650 62 r cheval\$1-highswitch;
#X obj 546 228 route \$1 -1;
#X obj 546 255 b;
#X obj 546 207 r CHEVAL_STOP;
#X msg 546 276 0;
#X msg 272 233 0.1;
#X text 556 383 1 tour pedalier/sec : 3 pulse/s;
#X obj 135 375 moses 0;
#X obj 193 356 r cheval\$1-pos;
#X obj 193 377 + 6;
#X obj 82 17 r cheval\$1-test;
#X connect 0 0 13 1;
#X connect 0 0 16 0;
#X connect 1 0 4 0;
#X connect 3 0 2 0;
#X connect 4 0 10 0;
#X connect 5 0 6 0;
#X connect 6 0 7 0;
#X connect 7 0 8 0;
#X connect 8 0 9 0;
#X connect 9 0 7 1;
#X connect 9 0 10 0;
#X connect 9 0 29 0;
#X connect 10 0 11 0;
#X connect 11 0 12 1;
#X connect 11 0 15 0;
#X connect 11 1 14 0;
#X connect 12 0 21 0;
#X connect 13 0 23 0;
#X connect 14 0 12 0;
#X connect 15 0 14 1;
#X connect 16 0 17 0;
#X connect 17 0 14 1;
#X connect 18 0 16 0;
#X connect 19 0 18 0;
#X connect 20 0 19 0;
#X connect 21 0 22 0;
#X connect 21 1 13 0;
#X connect 22 0 13 0;
#X connect 23 0 24 0;
#X connect 24 0 30 0;
#X connect 24 0 59 0;
#X connect 25 0 24 1;
#X connect 26 0 27 0;
#X connect 26 0 28 0;
#X connect 32 0 23 1;
#X connect 33 0 34 0;
#X connect 34 0 38 0;
#X connect 35 0 36 0;
#X connect 36 0 37 0;
#X connect 38 0 39 0;
#X connect 38 1 35 0;
#X connect 39 0 40 0;
#X connect 41 0 42 0;
#X connect 42 0 45 0;
#X connect 42 1 45 0;
#X connect 43 0 48 0;
#X connect 43 1 48 0;
#X connect 44 0 43 0;
#X connect 45 0 46 0;
#X connect 46 0 47 0;
#X connect 50 0 51 0;
#X connect 51 0 49 0;
#X connect 52 0 50 0;
#X connect 53 0 54 0;
#X connect 53 1 54 0;
#X connect 54 0 56 0;
#X connect 55 0 53 0;
#X connect 56 0 47 0;
#X connect 57 0 23 1;
#X connect 59 0 26 0;
#X connect 60 0 61 0;
#X connect 61 0 59 1;
#X connect 62 0 6 0;
#X restore 486 28 pd AUTOMAT;
#X text 238 45 16 pas/tour - piste 4m50;
#X text 237 62 4.5*8/0.283=254 pas;
#X obj 367 115 print;
#X obj 258 374 unpack f f f f f f f f, f 42;
#N canvas 269 454 303 236 16bits 0;
#X obj 80 43 * 256;
#X obj 80 64 +, f 9;
#X obj 80 158 outlet;
#X obj 80 17 inlet;
#X obj 131 17 inlet;
#X obj 80 86 moses 32767;
#X obj 143 127 - 65536;
#X connect 0 0 1 0;
#X connect 1 0 5 0;
#X connect 3 0 0 0;
#X connect 4 0 1 1;
#X connect 5 0 2 0;
#X connect 5 1 6 0;
#X connect 6 0 2 0;
#X restore 258 399 pd 16bits;
#X obj 362 399 change;
#X obj 320 418 change;
#X msg 419 353 set -1;
#X obj 419 331 r cheval\$1-connected;
#X msg 15 332 speed 30 \, accel 80 \, decel 80;
#X msg 15 377 gainP 100 \, gainI 0 \, gainD 0 \, max 1023;
#X obj 258 541 r cheval\$1-setpwm;
#X obj 124 94 nbx 1 14 -1e+37 1e+37 0 0 cheval\$1-test cheval\$1-test
test 0 -6 0 10 -262144 -1 -1 -1 256;
#X connect 3 0 5 0;
#X connect 4 0 12 0;
#X connect 9 0 41 0;
#X connect 10 0 11 0;
#X connect 12 0 3 0;
#X connect 13 0 14 0;
#X connect 14 0 64 0;
#X connect 18 0 20 0;
#X connect 19 0 23 0;
#X connect 20 0 21 0;
#X connect 21 0 22 0;
#X connect 22 0 27 0;
#X connect 23 0 24 0;
#X connect 24 0 26 0;
#X connect 25 0 19 0;
#X connect 26 0 27 0;
#X connect 27 0 29 0;
#X connect 27 1 28 0;
#X connect 28 0 31 0;
#X connect 29 0 30 0;
#X connect 30 0 44 0;
#X connect 31 0 29 1;
#X connect 32 0 44 1;
#X connect 37 0 18 0;
#X connect 40 0 10 0;
#X connect 42 0 44 0;
#X connect 43 0 42 0;
#X connect 49 0 45 0;
#X connect 50 0 46 0;
#X connect 51 0 43 0;
#X connect 52 0 51 0;
#X connect 53 0 44 0;
#X connect 54 0 55 0;
#X connect 55 0 56 0;
#X connect 56 0 53 0;
#X connect 58 0 59 0;
#X connect 64 0 65 0;
#X connect 64 1 65 1;
#X connect 64 2 67 0;
#X connect 64 3 66 0;
#X connect 64 4 49 0;
#X connect 64 5 49 1;
#X connect 64 6 50 0;
#X connect 64 7 50 1;
#X connect 65 0 39 0;
#X connect 66 0 17 0;
#X connect 67 0 16 0;
#X connect 68 0 66 0;
#X connect 68 0 67 0;
#X connect 69 0 68 0;
#X connect 70 0 35 0;
#X connect 71 0 34 0;
#X connect 72 0 51 0;
#X coords 0 -1 1 1 200 70 1 20 40;
