#N canvas 909 192 575 748 10;
#X obj 16 116 fruit/fruit 1 cheval\$1 \$2 fwCheval;
#X obj 24 57 tgl 15 0 cheval\$1-connected cheval\$1-connected connecté
17 7 0 10 -262144 -1 -1 0 1;
#X text 280 17 diametre poulie 90mm : circ 283mm;
#X text 283 48 4.5*8/0.283=127 pas;
#X text 284 31 8 pas/tour - piste 4m50, f 24;
#X obj 258 128 tgl 15 0 empty empty empty 17 7 0 10 -262144 -1 -1 0
1;
#X obj 258 84 fruit/receive cheval\$1;
#X obj 258 148 s cheval\$1-connected;
#X obj 24 91 tgl 15 0 cheval\$1-highswitch cheval\$1-highswitch arrivé
17 7 0 10 -262144 -1 -1 0 1;
#X obj 24 74 tgl 15 0 cheval\$1-lowswitch cheval\$1-lowswitch au_départ
17 7 0 10 -262144 -1 -1 0 1;
#X obj 14 176 dcmotor/motor cheval\$1 120 motor;
#X floatatom 433 554 5 0 0 0 - - -;
#X msg 382 684 dest \$1;
#X obj 382 706 s cheval\$1-motor-ramp-params;
#X obj 258 105 route present;
#X obj 251 332 fruit/receive cheval\$1;
#X obj 251 353 route 10;
#X obj 153 64 nbx 5 14 -1e+37 1e+37 0 0 cheval\$1-pos cheval\$1-pos
position 0 -6 0 10 -262144 -1 -1 0 256;
#X obj 273 453 s cheval\$1-lowswitch;
#X obj 296 436 s cheval\$1-highswitch;
#X obj 19 514 hsl 128 15 0 1 0 0 empty empty empty -2 -8 0 10 -262144
-1 -1 0 1;
#X obj 165 514 hsl 128 15 0 1 0 0 empty empty empty -2 -8 0 10 -262144
-1 -1 0 1;
#X obj 16 535 clip 0 1;
#X obj 16 556 change;
#X msg 16 577 10 \$1;
#X obj 162 535 clip 0 1;
#X obj 162 556 change;
#X obj 162 494 r cheval\$1-LampeArrivée;
#X msg 162 577 11 \$1;
#X obj 16 598 unpack f f;
#X obj 73 619 * 1010;
#X obj 16 659 pack f f, f 10;
#X msg 16 680 c \$1 i \$2;
#X obj 73 639 i;
#X msg 145 678 WRITE;
#X text 143 664 eeprom;
#X obj 15 399 s cheval\$1-motor-posPid-params;
#X obj 15 355 s cheval\$1-motor-ramp-params;
#X text 48 10 cheval num fruit-id;
#X obj 16 494 r cheval\$1-LampeDépart;
#X obj 153 92 nbx 5 14 -1e+37 1e+37 0 0 cheval\$1-dest cheval\$1-dest
destination 0 -6 0 10 -262144 -1 -1 0 256;
#X obj 251 473 s cheval\$1-pos;
#X obj 382 662 r cheval\$1-dest;
#X obj 433 575 s cheval\$1-dest;
#X msg 202 626 c 120 c 4 i \$1;
#X floatatom 221 591 5 0 0 0 - - -;
#X obj 16 701 fruit/send2 cheval\$1, f 22;
#X obj 327 414 s cheval\$1-pwm;
#X obj 418 414 s cheval\$1-ramppos;
#X obj 443 126 nbx 5 14 -1e+37 1e+37 0 0 cheval\$1-ramppos cheval\$1-ramppos
ramp_position 0 -6 0 10 -262144 -1 -1 0 256;
#X obj 446 88 nbx 5 14 -1e+37 1e+37 0 0 cheval\$1-pwm cheval\$1-pwm
PWM 0 -6 0 10 -262144 -1 -1 0 256;
#X obj 251 374 unpack f f f f f f f, f 34;
#N canvas 269 454 303 236 16bits 0;
#X obj 80 43 * 256;
#X obj 80 64 +, f 9;
#X obj 80 158 outlet;
#X obj 80 17 inlet;
#X obj 131 17 inlet;
#X obj 80 86 moses 32767;
#X obj 143 127 - 65536;
#X connect 0 0 1 0;
#X connect 1 0 5 0;
#X connect 3 0 0 0;
#X connect 4 0 1 1;
#X connect 5 0 2 0;
#X connect 5 1 6 0;
#X connect 6 0 2 0;
#X restore 327 396 pd 16bits;
#N canvas 1 189 303 236 16bits 0;
#X obj 80 43 * 256;
#X obj 80 64 +, f 9;
#X obj 80 158 outlet;
#X obj 80 17 inlet;
#X obj 131 17 inlet;
#X obj 80 86 moses 32767;
#X obj 143 127 - 65536;
#X connect 0 0 1 0;
#X connect 1 0 5 0;
#X connect 3 0 0 0;
#X connect 4 0 1 1;
#X connect 5 0 2 0;
#X connect 5 1 6 0;
#X connect 6 0 2 0;
#X restore 418 394 pd 16bits;
#X msg 15 332 speed 20 \, accel 30 \, decel 30;
#X msg 15 377 gainP 200 \, gainI 20 \, gainD 0 \, max 1023;
#X obj 225 565 hsl 128 15 -1023 1023 0 0 empty empty empty -2 -8 0
10 -262144 -1 -1 0 1;
#X msg 224 541 0;
#X msg 312 640 c 20 c 0 i \$1;
#X floatatom 363 571 8 35 195 2 servo - -;
#X obj 363 591 * 100;
#X floatatom 363 612 8 0 0 0 - - -;
#X obj 109 73 tgl 15 0 cheval\$1-actif cheval\$1-actif actif -5 22
0 10 -204786 -1 -1 0 1;
#X connect 5 0 7 0;
#X connect 6 0 14 0;
#X connect 11 0 43 0;
#X connect 12 0 13 0;
#X connect 14 0 5 0;
#X connect 15 0 16 0;
#X connect 16 0 51 0;
#X connect 20 0 22 0;
#X connect 21 0 25 0;
#X connect 22 0 23 0;
#X connect 23 0 24 0;
#X connect 24 0 29 0;
#X connect 25 0 26 0;
#X connect 26 0 28 0;
#X connect 27 0 21 0;
#X connect 28 0 29 0;
#X connect 29 0 31 0;
#X connect 29 1 30 0;
#X connect 30 0 33 0;
#X connect 31 0 32 0;
#X connect 32 0 46 0;
#X connect 33 0 31 1;
#X connect 34 0 46 1;
#X connect 39 0 20 0;
#X connect 42 0 12 0;
#X connect 44 0 46 0;
#X connect 45 0 44 0;
#X connect 51 0 41 0;
#X connect 51 1 18 0;
#X connect 51 2 19 0;
#X connect 51 3 52 0;
#X connect 51 4 52 1;
#X connect 51 5 53 0;
#X connect 51 6 53 1;
#X connect 52 0 47 0;
#X connect 53 0 48 0;
#X connect 54 0 37 0;
#X connect 55 0 36 0;
#X connect 56 0 45 0;
#X connect 57 0 56 0;
#X connect 58 0 46 0;
#X connect 59 0 60 0;
#X connect 60 0 61 0;
#X connect 61 0 58 0;
#X coords 0 -1 1 1 200 70 1 20 40;
