#N canvas 356 81 764 745 10;
#X obj 16 116 fruit/fruit 1 cheval\$1 \$2 fwCheval;
#X obj 24 57 tgl 15 0 cheval\$1-connected cheval\$1-connected connecté
17 7 0 10 -262144 -1 -1 0 1;
#X text 357 20 diametre poulie 90mm : circ 283mm;
#X obj 358 125 tgl 15 0 empty empty empty 17 7 0 10 -262144 -1 -1 0
1;
#X obj 358 81 fruit/receive cheval\$1;
#X obj 358 145 s cheval\$1-connected;
#X obj 24 91 tgl 15 0 cheval\$1-highswitch cheval\$1-highswitch arrivé
17 7 0 10 -262144 -1 -1 0 1;
#X obj 24 74 tgl 15 0 cheval\$1-lowswitch cheval\$1-lowswitch au_départ
17 7 0 10 -262144 -1 -1 0 1;
#X obj 14 176 dcmotor/motor cheval\$1 120 motor;
#X floatatom 454 588 5 0 0 0 - - -;
#X msg 417 688 dest \$1;
#X obj 417 710 s cheval\$1-motor-ramp-params;
#X obj 358 102 route present;
#X obj 258 332 fruit/receive cheval\$1;
#X obj 258 353 route 10;
#X obj 153 64 nbx 5 14 -1e+37 1e+37 0 0 cheval\$1-pos cheval\$1-pos
position 0 -6 0 10 -262144 -1 -1 41 256;
#X obj 315 456 s cheval\$1-lowswitch;
#X obj 365 439 s cheval\$1-highswitch;
#X obj 19 514 hsl 128 15 0 1 0 0 empty empty empty -2 -8 0 10 -262144
-1 -1 0 1;
#X obj 165 514 hsl 128 15 0 1 0 0 empty empty empty -2 -8 0 10 -262144
-1 -1 0 1;
#X obj 16 535 clip 0 1;
#X obj 16 556 change;
#X obj 162 535 clip 0 1;
#X obj 162 556 change;
#X obj 162 494 r cheval\$1-LampeArrivée;
#X obj 16 598 unpack f f;
#X obj 73 619 * 1010;
#X obj 16 659 pack f f, f 10;
#X msg 16 680 c \$1 i \$2;
#X obj 73 639 i;
#X msg 145 678 WRITE;
#X text 143 664 eeprom;
#X obj 15 399 s cheval\$1-motor-posPid-params;
#X obj 15 355 s cheval\$1-motor-ramp-params;
#X text 48 10 cheval num fruit-id;
#X obj 16 494 r cheval\$1-LampeDépart;
#X obj 153 92 nbx 5 14 -1e+37 1e+37 0 0 cheval\$1-dest cheval\$1-dest
destination 0 -6 0 10 -262144 -1 -1 0 256;
#X obj 258 473 s cheval\$1-pos;
#X obj 417 666 r cheval\$1-dest;
#X obj 454 609 s cheval\$1-dest;
#X msg 202 626 c 120 c 4 i \$1;
#X floatatom 221 591 5 0 0 0 - - -;
#X obj 16 701 fruit/send2 cheval\$1, f 22;
#X obj 435 419 s cheval\$1-pwm;
#X obj 525 420 s cheval\$1-ramppos;
#X obj 543 123 nbx 5 14 -1e+37 1e+37 0 0 cheval\$1-ramppos cheval\$1-ramppos
ramp_position 0 -6 0 10 -262144 -1 -1 0 256;
#X obj 96 64 nbx 5 14 -1e+37 1e+37 0 0 cheval\$1-pwm cheval\$1-pwm
PWM 0 -6 0 10 -262144 -1 -1 0 256;
#N canvas 269 454 303 236 16bits 0;
#X obj 80 43 * 256;
#X obj 80 64 +, f 9;
#X obj 80 158 outlet;
#X obj 80 17 inlet;
#X obj 131 17 inlet;
#X obj 80 86 moses 32767;
#X obj 143 127 - 65536;
#X connect 0 0 1 0;
#X connect 1 0 5 0;
#X connect 3 0 0 0;
#X connect 4 0 1 1;
#X connect 5 0 2 0;
#X connect 5 1 6 0;
#X connect 6 0 2 0;
#X restore 435 401 pd 16bits;
#N canvas 1 189 303 236 16bits 0;
#X obj 80 43 * 256;
#X obj 80 64 +, f 9;
#X obj 80 158 outlet;
#X obj 80 17 inlet;
#X obj 131 17 inlet;
#X obj 80 86 moses 32767;
#X obj 143 127 - 65536;
#X connect 0 0 1 0;
#X connect 1 0 5 0;
#X connect 3 0 0 0;
#X connect 4 0 1 1;
#X connect 5 0 2 0;
#X connect 5 1 6 0;
#X connect 6 0 2 0;
#X restore 525 400 pd 16bits;
#X obj 225 565 hsl 128 15 -1023 1023 0 0 empty empty empty -2 -8 0
10 -262144 -1 -1 0 1;
#X msg 224 541 0;
#X msg 312 640 c 20 c 0 i \$1;
#X floatatom 363 571 8 35 195 2 servo - -;
#X obj 363 591 * 100;
#X floatatom 363 611 8 0 0 0 - - -;
#X obj 98 94 tgl 15 0 cheval\$1-actif cheval\$1-actif actif -5 -6 0
10 -204786 -1 -1 0 1;
#X obj 250 684 r ENABLE_BIKES;
#X obj 250 705 s cheval\$1-actif;
#X text 361 34 16 pas/tour - piste 4m50;
#X obj 467 112 print;
#X obj 258 374 unpack f f f f f f f f, f 51;
#N canvas 269 454 303 236 16bits 0;
#X obj 80 43 * 256;
#X obj 80 64 +, f 9;
#X obj 80 158 outlet;
#X obj 80 17 inlet;
#X obj 131 17 inlet;
#X obj 80 86 moses 32767;
#X obj 143 127 - 65536;
#X connect 0 0 1 0;
#X connect 1 0 5 0;
#X connect 3 0 0 0;
#X connect 4 0 1 1;
#X connect 5 0 2 0;
#X connect 5 1 6 0;
#X connect 6 0 2 0;
#X restore 258 399 pd 16bits;
#X msg 419 353 set -1;
#X obj 419 331 r cheval\$1-connected;
#X msg 15 332 speed 30 \, accel 80 \, decel 80;
#X msg 15 377 gainP 100 \, gainI 0 \, gainD 0 \, max 1023;
#X obj 258 541 r cheval\$1-setpwm;
#X obj 124 94 nbx 1 14 -1e+37 1e+37 0 0 cheval\$1-test cheval\$1-test
test 0 -6 0 10 -262144 -1 -1 0 256;
#X obj 135 42 hsl 80 10 0 1 0 0 cheval\$1-servo cheval\$1-servo servo
20 5 0 10 -262144 -1 -1 7900 1;
#X obj 466 465 r cheval\$1-servo;
#X obj 417 533 maxlib/scale 0 1 3500 19500;
#X floatatom 441 567 8 0 0 0 - - -;
#X obj 466 507 line;
#X msg 466 486 \$1 750;
#N canvas 345 357 775 481 AUTOMAT-move 0;
#X obj 253 42 r cheval\$1-actif;
#X obj 121 78 r PULSE_VELOS;
#X obj 121 99 route \$1;
#X floatatom 29 38 5 0 0 0 - - -;
#X obj 29 58 t b;
#X obj 29 79 i;
#X obj 29 100 + 1;
#X obj 29 121 mod 256;
#X obj 121 120 f;
#X obj 121 141 t f f, f 7;
#X obj 122 209 -, f 4;
#X obj 122 277 spigot;
#X obj 122 184 spigot;
#X msg 155 164 1;
#X obj 253 132 sel 1;
#X msg 253 153 0;
#X obj 267 110 tgl 15 0 empty empty empty 17 7 0 10 -262144 -1 -1 0
1;
#X obj 267 88 route present;
#X obj 267 65 fruit/receive velos;
#X obj 122 230 moses 0;
#X obj 122 251 + 256;
#X obj 122 306 * 1, f 10;
#X obj 122 353 +, f 4;
#X obj 143 330 r cheval\$1-dest;
#X obj 122 406 clip 0 255;
#X obj 122 436 s cheval\$1-dest;
#X obj 179 282 r PEDALE_TO_CHEVAL_GAIN;
#X obj 431 49 r cheval\$1-lowswitch;
#X obj 431 70 sel 1;
#X msg 458 112 0 \, 1;
#X msg 458 133 homed \$1;
#X obj 458 155 s cheval\$1-motor-params;
#X obj 431 91 t b b;
#X msg 412 123 0;
#X obj 412 175 s cheval\$1-dest;
#X obj 423 207 r CHEVAL_REWIND;
#X obj 423 228 route \$1 -1;
#X obj 658 199 route \$1 -1;
#X obj 658 178 r CHEVAL_GOTO;
#X obj 423 255 b;
#X msg 426 363 -1023;
#X obj 426 384 s cheval\$1-setpwm;
#X obj 658 223 s cheval\$1-dest;
#X obj 637 126 s CHEVAL_ARRIVE;
#X obj 637 82 sel 1;
#X obj 637 103 f \$1;
#X obj 637 61 r cheval\$1-highswitch;
#X obj 536 226 route \$1 -1;
#X obj 536 253 b;
#X obj 536 205 r CHEVAL_STOP;
#X msg 536 362 0;
#X msg 259 232 0.1;
#X obj 122 374 moses 0;
#X obj 180 355 r cheval\$1-pos;
#X obj 180 376 + 6;
#X obj 69 16 r cheval\$1-test;
#X msg 367 280 1;
#X obj 207 390 r CHEVAL_MAXPOS;
#X obj 207 411 + 3;
#X obj 426 341 r cheval\$1-rewind;
#X obj 423 277 s cheval\$1-rewind;
#X obj 536 276 s cheval\$1-stop;
#X obj 536 341 r cheval\$1-stop;
#X connect 0 0 11 1;
#X connect 0 0 14 0;
#X connect 1 0 2 0;
#X connect 2 0 8 0;
#X connect 3 0 4 0;
#X connect 4 0 5 0;
#X connect 5 0 6 0;
#X connect 6 0 7 0;
#X connect 7 0 5 1;
#X connect 7 0 8 0;
#X connect 8 0 9 0;
#X connect 9 0 10 1;
#X connect 9 0 13 0;
#X connect 9 1 12 0;
#X connect 10 0 19 0;
#X connect 11 0 21 0;
#X connect 12 0 10 0;
#X connect 13 0 12 1;
#X connect 14 0 15 0;
#X connect 15 0 12 1;
#X connect 16 0 14 0;
#X connect 17 0 16 0;
#X connect 18 0 17 0;
#X connect 19 0 20 0;
#X connect 19 1 11 0;
#X connect 20 0 11 0;
#X connect 21 0 22 0;
#X connect 22 0 52 0;
#X connect 23 0 22 1;
#X connect 24 0 25 0;
#X connect 26 0 21 1;
#X connect 27 0 28 0;
#X connect 28 0 32 0;
#X connect 29 0 30 0;
#X connect 30 0 31 0;
#X connect 32 0 33 0;
#X connect 32 1 29 0;
#X connect 33 0 34 0;
#X connect 35 0 36 0;
#X connect 35 0 56 0;
#X connect 36 0 39 0;
#X connect 36 1 39 0;
#X connect 37 0 42 0;
#X connect 37 1 42 0;
#X connect 38 0 37 0;
#X connect 39 0 60 0;
#X connect 40 0 41 0;
#X connect 44 0 45 0;
#X connect 45 0 43 0;
#X connect 46 0 44 0;
#X connect 47 0 48 0;
#X connect 47 1 48 0;
#X connect 48 0 61 0;
#X connect 49 0 47 0;
#X connect 50 0 41 0;
#X connect 51 0 21 1;
#X connect 52 0 24 0;
#X connect 53 0 54 0;
#X connect 54 0 52 1;
#X connect 55 0 4 0;
#X connect 57 0 58 0;
#X connect 58 0 24 2;
#X connect 59 0 40 0;
#X connect 62 0 50 0;
#X restore 586 25 pd AUTOMAT-move;
#N canvas 628 207 321 327 AUTOMAT-servo 0;
#X obj 29 28 r STATE;
#X obj 29 49 sel Parade, f 13;
#X obj 29 275 s cheval\$1-servo;
#X msg 29 76 1;
#X msg 58 76 0;
#X obj 29 97 metro 1000;
#X obj 49 140 + 1000;
#X obj 49 119 random 4000;
#X obj 29 162 random 2000;
#X obj 29 183 - 1000;
#X obj 29 204 / 1000;
#X obj 29 246 + 0.5;
#X obj 29 225 * 0.1;
#X obj 175 142 r CHEVAL_REWIND;
#X obj 164 163 route \$1 -1;
#X obj 164 190 b;
#X obj 124 97 sel PausePreCourse;
#X msg 124 118 0;
#X msg 164 211 1;
#X obj 164 122 r CHEVAL_GOTO;
#X connect 0 0 1 0;
#X connect 1 0 3 0;
#X connect 1 1 4 0;
#X connect 1 1 16 0;
#X connect 3 0 5 0;
#X connect 4 0 5 0;
#X connect 5 0 7 0;
#X connect 5 0 8 0;
#X connect 6 0 5 1;
#X connect 7 0 6 0;
#X connect 8 0 9 0;
#X connect 9 0 10 0;
#X connect 10 0 12 0;
#X connect 11 0 2 0;
#X connect 12 0 11 0;
#X connect 13 0 14 0;
#X connect 14 0 15 0;
#X connect 14 1 15 0;
#X connect 15 0 18 0;
#X connect 16 0 17 0;
#X connect 17 0 2 0;
#X connect 18 0 2 0;
#X connect 19 0 14 0;
#X restore 587 46 pd AUTOMAT-servo;
#N canvas 1 81 669 538 AUTOMAT_light 0;
#X obj 40 94 sel Parade, f 19;
#X obj 184 9 r STATE;
#X obj 296 83 sel PausePreCourse Course;
#X obj 159 479 s cheval\$1-LampeDépart;
#X obj 310 479 s cheval\$1-LampeArrivée;
#X obj 41 480 s LAMPE_VELOS;
#X obj 41 459 list prepend \$1;
#X obj 486 288 r CHEVAL_REWIND;
#X obj 486 312 route \$1 -1;
#X obj 486 339 b;
#X msg 486 360 0;
#X obj 40 115 f \$1;
#X obj 40 136 tabread gagnants;
#X obj 40 157 sel 0;
#X msg 40 178 1;
#X msg 71 178 0;
#X obj 40 259 sel 0, f 6;
#X msg 40 280 1;
#X msg 73 280 0;
#X obj 40 301 change;
#X obj 40 199 metro 5;
#X obj 40 238 random 20;
#X obj 105 259 sel 0, f 6;
#X msg 105 280 1;
#X msg 138 280 0;
#X obj 105 301 change;
#X obj 105 238 random 20;
#X obj 167 259 sel 0, f 6;
#X msg 167 280 1;
#X msg 200 280 0;
#X obj 167 301 change;
#X obj 167 238 random 20;
#X msg 401 136 1;
#X obj 296 114 t b b, f 18;
#X msg 433 136 0;
#X obj 305 135 r cheval\$1-pos;
#X obj 296 161 f;
#X obj 296 183 spigot, f 16;
#X obj 296 229 t f f, f 15;
#X obj 383 250 * 5;
#X obj 383 271 - 4;
#X obj 383 292 clip 0 1;
#X obj 383 337 change;
#X obj 296 204 / 254;
#X obj 340 204 r CHEVAL_MAXPOS;
#X obj 296 250 * 5;
#X obj 296 270 clip 0 1;
#X obj 296 291 * -1;
#X obj 296 312 + 1;
#X obj 296 333 change;
#X obj 309 360 +;
#X obj 41 416 clip 0 1, f 15;
#X obj 41 437 change;
#N canvas 644 191 454 556 flash 0;
#X obj 37 37 inlet;
#X obj 37 58 t f f, f 17;
#X obj 257 52 inlet stop;
#X obj 30 81 > 0.5;
#X obj 37 135 change;
#X obj 37 203 sel 0, f 6;
#X msg 37 224 1;
#X msg 70 224 0;
#X obj 37 182 random 20;
#X obj 100 386 * 1;
#X obj 64 291 sel 1 0;
#X msg 64 333 0;
#X msg 93 333 1;
#X obj 117 362 t b f;
#X obj 37 248 t f f;
#X obj 37 415 +;
#X obj 291 425 hsl 128 15 0 1 0 0 empty empty empty -2 -8 0 10 -262144
-1 -1 0 1;
#X obj 97 25 hsl 128 15 0 1 0 0 empty empty empty -2 -8 0 10 -262144
-1 -1 0 1;
#X obj 1 135 sel 0;
#X msg 23 380 0;
#X obj 93 312 del 50;
#X obj 64 271 change;
#X obj 103 83 * -1;
#X obj 103 104 + 1;
#X obj 103 162 * 1000;
#X obj 30 102 t f f;
#X obj 37 161 metro 5;
#X obj 37 436 change;
#X obj 259 451 print;
#X obj 103 183 + 5;
#X obj 103 125 pow 2;
#X obj 37 457 outlet;
#X msg 257 73 stop;
#X msg 164 361 1;
#X connect 0 0 1 0;
#X connect 1 0 3 0;
#X connect 1 1 9 0;
#X connect 1 1 22 0;
#X connect 2 0 32 0;
#X connect 3 0 25 0;
#X connect 4 0 26 0;
#X connect 5 0 6 0;
#X connect 5 1 7 0;
#X connect 6 0 14 0;
#X connect 7 0 14 0;
#X connect 8 0 5 0;
#X connect 9 0 15 1;
#X connect 10 0 11 0;
#X connect 10 1 20 0;
#X connect 11 0 13 0;
#X connect 12 0 13 0;
#X connect 12 0 19 0;
#X connect 13 0 9 0;
#X connect 13 1 9 1;
#X connect 14 0 15 0;
#X connect 14 1 21 0;
#X connect 15 0 27 0;
#X connect 17 0 1 0;
#X connect 18 0 19 0;
#X connect 19 0 15 0;
#X connect 20 0 12 0;
#X connect 21 0 10 0;
#X connect 22 0 23 0;
#X connect 23 0 30 0;
#X connect 24 0 29 0;
#X connect 25 0 18 0;
#X connect 25 1 4 0;
#X connect 26 0 8 0;
#X connect 27 0 31 0;
#X connect 29 0 8 1;
#X connect 30 0 24 0;
#X connect 32 0 26 0;
#X connect 32 0 20 0;
#X connect 32 0 33 0;
#X connect 33 0 9 1;
#X restore 383 314 pd flash;
#X connect 0 0 11 0;
#X connect 0 1 15 0;
#X connect 1 0 0 0;
#X connect 1 0 2 0;
#X connect 2 0 33 0;
#X connect 2 1 33 0;
#X connect 2 2 34 0;
#X connect 6 0 5 0;
#X connect 7 0 8 0;
#X connect 8 0 9 0;
#X connect 8 1 9 0;
#X connect 9 0 10 0;
#X connect 10 0 4 0;
#X connect 10 0 3 0;
#X connect 10 0 51 0;
#X connect 11 0 12 0;
#X connect 12 0 13 0;
#X connect 13 0 14 0;
#X connect 13 1 15 0;
#X connect 14 0 20 0;
#X connect 15 0 20 0;
#X connect 16 0 17 0;
#X connect 16 1 18 0;
#X connect 17 0 19 0;
#X connect 18 0 19 0;
#X connect 19 0 51 0;
#X connect 20 0 21 0;
#X connect 20 0 26 0;
#X connect 20 0 31 0;
#X connect 21 0 16 0;
#X connect 22 0 23 0;
#X connect 22 1 24 0;
#X connect 23 0 25 0;
#X connect 24 0 25 0;
#X connect 25 0 3 0;
#X connect 26 0 22 0;
#X connect 27 0 28 0;
#X connect 27 1 29 0;
#X connect 28 0 30 0;
#X connect 29 0 30 0;
#X connect 30 0 4 0;
#X connect 31 0 27 0;
#X connect 32 0 37 1;
#X connect 33 0 36 0;
#X connect 33 1 32 0;
#X connect 34 0 37 1;
#X connect 34 0 53 1;
#X connect 35 0 36 0;
#X connect 36 0 37 0;
#X connect 37 0 43 0;
#X connect 38 0 45 0;
#X connect 38 1 39 0;
#X connect 39 0 40 0;
#X connect 40 0 41 0;
#X connect 41 0 53 0;
#X connect 42 0 4 0;
#X connect 43 0 38 0;
#X connect 44 0 43 1;
#X connect 45 0 46 0;
#X connect 46 0 47 0;
#X connect 47 0 48 0;
#X connect 48 0 49 0;
#X connect 48 0 50 0;
#X connect 49 0 3 0;
#X connect 50 0 51 0;
#X connect 51 0 52 0;
#X connect 52 0 6 0;
#X connect 53 0 42 0;
#X connect 53 0 50 1;
#X restore 586 67 pd AUTOMAT_light;
#X obj 365 418 == 0;
#X obj 313 436 == 0;
#X obj 312 416 change -1;
#X obj 362 399 change -1;
#X msg 16 577 11 \$1;
#X msg 162 577 10 \$1;
#X text 360 51 4.5*8/0.283=254 pas \; mesure 274 pas;
#X obj 369 698 print;
#X obj 584 592 r cheval\$1-pos;
#X obj 683 549 loadbang;
#X obj 683 570 f \$1;
#X obj 683 591 - 1;
#X obj 226 54 bng 15 250 50 0 cheval\$1-rewind cheval\$1-rewind rewind
-5 -5 0 10 -257985 -1 -1;
#X obj 226 81 bng 15 250 50 0 cheval\$1-stop cheval\$1-stop stop -5
-5 0 10 -258113 -1 -1;
#X obj 584 613 tabwrite postable;
#N canvas 1 81 450 300 reprise 1;
#X obj 253 51 r STATE;
#X obj 253 72 sel Course;
#X obj 65 50 r cheval\$1-pos;
#X obj 253 122 del 5000;
#X msg 275 96 stop;
#X msg 253 143 1;
#X msg 321 122 0;
#X msg 65 117 1;
#X msg 97 117 0;
#X obj 65 72 t b b b, f 11;
#X obj 64 156 spigot;
#X obj 65 96 del 6000;
#X obj 64 177 spigot;
#X obj 64 198 s PLAY_REPRISE;
#X connect 0 0 1 0;
#X connect 1 0 3 0;
#X connect 1 0 8 0;
#X connect 1 1 4 0;
#X connect 1 1 6 0;
#X connect 2 0 9 0;
#X connect 3 0 5 0;
#X connect 4 0 3 0;
#X connect 5 0 12 1;
#X connect 6 0 12 1;
#X connect 7 0 10 1;
#X connect 8 0 10 1;
#X connect 9 0 11 0;
#X connect 9 1 8 0;
#X connect 9 2 10 0;
#X connect 10 0 12 0;
#X connect 11 0 7 0;
#X connect 12 0 13 0;
#X restore 586 88 pd reprise;
#X connect 3 0 5 0;
#X connect 4 0 12 0;
#X connect 9 0 39 0;
#X connect 10 0 11 0;
#X connect 12 0 3 0;
#X connect 13 0 14 0;
#X connect 14 0 60 0;
#X connect 18 0 20 0;
#X connect 19 0 22 0;
#X connect 20 0 21 0;
#X connect 21 0 81 0;
#X connect 22 0 23 0;
#X connect 23 0 82 0;
#X connect 24 0 19 0;
#X connect 25 0 27 0;
#X connect 25 1 26 0;
#X connect 26 0 29 0;
#X connect 27 0 28 0;
#X connect 28 0 42 0;
#X connect 29 0 27 1;
#X connect 30 0 42 1;
#X connect 35 0 18 0;
#X connect 38 0 10 0;
#X connect 40 0 42 0;
#X connect 41 0 40 0;
#X connect 47 0 43 0;
#X connect 48 0 44 0;
#X connect 49 0 41 0;
#X connect 50 0 49 0;
#X connect 51 0 42 0;
#X connect 52 0 53 0;
#X connect 53 0 54 0;
#X connect 54 0 51 0;
#X connect 56 0 57 0;
#X connect 60 0 61 0;
#X connect 60 1 61 1;
#X connect 60 2 79 0;
#X connect 60 3 80 0;
#X connect 60 4 47 0;
#X connect 60 5 47 1;
#X connect 60 6 48 0;
#X connect 60 7 48 1;
#X connect 61 0 37 0;
#X connect 62 0 79 0;
#X connect 62 0 80 0;
#X connect 63 0 62 0;
#X connect 64 0 33 0;
#X connect 65 0 32 0;
#X connect 66 0 49 0;
#X connect 69 0 73 0;
#X connect 70 0 51 0;
#X connect 72 0 70 0;
#X connect 73 0 72 0;
#X connect 77 0 17 0;
#X connect 78 0 16 0;
#X connect 79 0 78 0;
#X connect 80 0 77 0;
#X connect 81 0 25 0;
#X connect 82 0 25 0;
#X connect 85 0 91 0;
#X connect 86 0 87 0;
#X connect 87 0 88 0;
#X connect 88 0 91 1;
#X coords 0 -1 1 1 240 70 1 20 40;
