#N canvas 1 81 450 452 10;
#X obj 101 101 cnv 20 180 30 empty \$0-canvas Debut 5 12 0 18 -233017
-1 0;
#X obj 107 238 r STATE;
#X obj 107 259 sel \$1;
#X msg 107 280 1;
#X obj 107 301 change;
#X msg 140 280 0;
#X obj 107 335 sel 0 1;
#X obj 107 398 s \$0-canvas;
#X msg 107 356 10;
#X msg 142 356 15;
#X obj 292 255 loadbang;
#X msg 107 377 color \$1 \$1 22;
#X obj 292 276 symbol \$1;
#X msg 292 297 label \$1;
#X obj 359 252 bng 15 250 50 0 empty empty empty 17 7 0 10 -262144
-1 -1;
#X connect 1 0 2 0;
#X connect 2 0 3 0;
#X connect 2 1 5 0;
#X connect 3 0 4 0;
#X connect 4 0 6 0;
#X connect 5 0 4 0;
#X connect 6 0 8 0;
#X connect 6 1 9 0;
#X connect 8 0 11 0;
#X connect 9 0 11 0;
#X connect 10 0 8 0;
#X connect 10 0 12 0;
#X connect 11 0 7 0;
#X connect 12 0 13 0;
#X connect 13 0 7 0;
#X connect 14 0 12 0;
#X coords 0 -1 1 1 182 32 1 100 100;
